<svg width="256" height="256" viewBox="0 0 256 256" fill="none" xmlns="http://www.w3.org/2000/svg">
<rect width="256" height="256" fill="white"/>
<path d="M127.582 3.53271C100.191 27.6618 81.0491 34.5821 40.4531 35.6586C47.5869 88.1583 44.9876 128.173 46.5376 139.337C50.8629 170.495 67.2247 195.314 127.826 228.9C186.723 195.314 204.976 170.495 210.331 139.337C211.99 128.171 207.654 88.16 216.172 35.6586C173.259 35.7076 154.931 27.9957 127.582 3.53271Z" fill="url(#paint0_linear_104_701)"/>
<path d="M127.894 12.5378C103.083 34.7387 85.7437 41.106 48.9712 42.0964C55.4331 90.4007 53.0786 127.217 54.4826 137.49C58.4006 166.157 73.2213 188.993 128.115 219.895C181.465 188.993 197.999 166.157 202.849 137.49C204.352 127.216 200.424 90.4022 208.14 42.0964C169.269 42.1415 152.667 35.0459 127.894 12.5378Z" fill="url(#paint1_linear_104_701)" stroke="black" stroke-width="0.146432"/>
<path d="M128.363 108.802V115.65C126.339 115.556 125.155 115.723 122.982 116.301C119.437 112.134 117.274 110.597 109.773 108.802C102.272 107.006 86.6182 110.269 86.6182 110.269C74.8776 112.713 70.2288 113.891 64.6045 112.713C64.6045 111.735 65.2567 110.269 66.072 109.941C68.4851 111.871 74.3896 112.215 81.124 108.936C79.0896 109.755 69.1962 111.389 66.8874 108.312C68.8442 102.44 71.7793 97.3849 79.2803 81.7307C82.5838 80.6511 106.306 75.315 112.968 75.8189C121.681 76.4778 127.384 79.5078 128.363 80.6511C128.363 89.4371 129.003 104.593 128.363 108.802Z" fill="#EFEFEF"/>
<path d="M128.363 115.65C128.363 115.65 128.363 111.735 128.363 108.802C129.003 104.593 128.363 89.4371 128.363 80.6511C127.384 79.5078 121.681 76.4778 112.968 75.8189C106.306 75.315 82.5838 80.6511 79.2803 81.7307C71.7793 97.3849 68.8442 102.44 66.8874 108.312C69.3334 111.572 80.2923 109.545 81.4002 108.8C74.5514 112.224 68.518 111.898 66.072 109.941C65.2567 110.269 64.6045 111.735 64.6045 112.713C70.2288 113.891 74.8776 112.713 86.6182 110.269C86.6182 110.269 102.272 107.006 109.773 108.802C117.274 110.597 119.437 112.134 122.982 116.301C125.155 115.723 126.339 115.556 128.363 115.65Z" stroke="#0B2846" stroke-width="0.146432"/>
<path d="M132.955 116.307L131.651 115.818C136.771 110.173 140.77 108.305 148.926 106.621C149.205 106.563 149.408 106.318 149.408 106.033C138.907 106.523 130.684 115.818 130.684 115.818C130.684 115.818 129.252 115.645 128.343 115.655L128.343 108.107L128.343 103.587L128.343 80.5813C135.738 76.1849 139.838 75.4528 143.865 74.9403C147.892 74.4278 150.413 73.6718 160.323 76.0385C165.229 77.21 170.516 79.7725 174.659 81.7343L177.103 82.3867L182.805 95.5962L188.995 108.316C185.376 110.768 182.039 110.766 175.148 109.295C177.88 110.503 179.652 111.003 182.805 111.252C185.827 111.473 187.377 111.26 189.81 110.11L191.602 112.883C186.418 113.029 183.494 112.872 178.243 112.067C178.243 112.067 167.913 109.39 161.138 108.806C155.433 108.313 153.176 107.716 146.476 108.806C139.776 109.895 136.964 111.974 132.955 116.307Z" fill="#EFEFEF"/>
<path d="M128.343 115.655C129.252 115.645 130.684 115.818 130.684 115.818C130.684 115.818 138.907 106.523 149.408 106.033V106.033C149.408 106.318 149.205 106.563 148.926 106.621C140.77 108.305 136.771 110.173 131.651 115.818L132.955 116.307C136.964 111.974 139.776 109.895 146.476 108.806C153.176 107.716 155.433 108.313 161.138 108.806C167.913 109.39 178.243 112.067 178.243 112.067C183.494 112.872 186.418 113.029 191.602 112.883L189.81 110.11C187.377 111.26 185.827 111.473 182.805 111.252C179.652 111.003 177.88 110.503 175.148 109.295C182.039 110.766 185.376 110.768 188.995 108.316L182.805 95.5962L177.103 82.3867L174.659 81.7343M128.343 115.655C128.343 115.655 134.095 105.055 143.381 102.609C152.667 100.162 158.368 101.402 160.323 101.793C162.278 102.185 170.261 104.234 174.496 105.055C178.732 105.875 181.502 104.892 182.805 103.587C184.108 102.282 180.317 97.9649 174.659 81.7343M128.343 115.655L128.343 108.107C128.343 108.806 128.343 104.08 128.343 103.587C128.343 98.7355 128.343 81.6761 128.343 80.5813C135.738 76.1849 139.838 75.4528 143.865 74.9403C147.892 74.4278 150.413 73.6718 160.323 76.0385C165.229 77.21 170.516 79.7725 174.659 81.7343" stroke="#0B2846" stroke-width="0.146432"/>
<path d="M122.492 116.464L121.351 116.953C121.351 116.953 116.07 112.239 111.73 111.572C107.49 110.92 103.95 111.502 99.0108 112.061C88.6131 113.237 81.78 115.77 71.2898 116.79C67.6136 117.147 61.6689 117.116 61.6689 117.116L63.7888 113.366C66.9542 114.334 69.2005 114.386 72.2682 113.855C72.2682 113.855 91.0207 110.757 97.8693 109.778C101.783 109.219 107.164 109.356 110.751 109.778C114.339 110.2 118.337 112.409 122.492 116.464Z" fill="#EFEFEF" stroke="#0B2846" stroke-width="0.146432"/>
<path d="M133.254 116.507L134.233 116.953C134.233 116.953 139.676 112.283 144.017 111.615C148.256 110.963 151.797 111.546 156.736 112.104C167.133 113.28 173.967 115.814 184.457 116.833C188.133 117.191 194.078 117.159 194.078 117.159L191.958 113.409C188.792 114.378 186.546 114.43 183.478 113.898C183.478 113.898 164.726 110.801 157.877 109.822C153.964 109.262 148.583 109.4 144.995 109.822C141.408 110.244 137.409 112.452 133.254 116.507Z" fill="#EFEFEF" stroke="#0B2846" stroke-width="0.146432"/>
<path d="M119.411 118.254L118.278 119.236C115.142 117.282 113.582 115.962 108.077 115.798C102.572 115.635 93.505 116.289 93.505 116.289L82.6567 116.617V115.798C86.4347 115.253 94.0555 114.161 94.3145 114.161C94.5736 114.161 105.972 113.179 110.344 113.998C114.716 114.816 116.725 115.642 119.411 118.254Z" fill="#EC9E30"/>
<path d="M136.026 118.257L137.33 119.234C140.489 117.287 142.059 115.973 147.603 115.809C153.148 115.646 162.279 116.299 162.279 116.299L173.205 116.625V115.809C169.4 115.266 161.725 114.179 161.464 114.179C161.203 114.179 149.723 113.201 145.321 114.016C140.918 114.831 138.731 115.655 136.026 118.257Z" fill="#EC9E30"/>
<path d="M128.036 116.79C124.098 116.739 121.733 117.817 118.742 120.703L118.089 119.888C119.924 118.138 121.388 116.161 128.036 115.722C132.81 116.161 132.575 115.812 137.715 119.888L137.005 120.703C133.919 117.921 131.857 116.839 128.036 116.79Z" fill="#EFEFEF"/>
<path d="M60.3645 111.245H62.8105L58.2447 119.236C79.6631 118.251 106.023 117.279 109.447 117.442C112.871 117.605 118.416 119.399 118.579 120.54C118.855 122.477 119.557 126.737 128.036 126.737C136.027 126.737 136.842 123.312 137.168 120.703C137.311 119.562 141.408 117.605 144.506 117.442C147.604 117.279 172.74 117.935 197.339 119.072L192.447 111.245H195.056L201.089 121.355C171.329 120.545 142.06 119.072 139.94 122.334C138.677 124.277 136.027 128.693 128.036 128.693C118.577 128.693 117.274 123.801 115.317 121.845C114.013 119.725 88.0186 120.35 54.6572 121.518L60.3645 111.245Z" fill="#EC9E30"/>
<path d="M153.148 102.604C144.995 102.604 138.884 104.526 132.928 111.247C139.308 106.205 144.701 104.375 153.148 104.235C161.596 104.095 166.03 106.354 170.922 107.169C175.814 107.984 178.26 108.8 181.522 108.8C184.783 108.8 185.435 108.147 185.924 107.169C186.413 106.192 185.924 104.887 185.924 104.887C185.924 104.887 183.152 107.985 175.162 106.681C167.172 105.376 161.301 102.604 153.148 102.604Z" fill="#0B2846" stroke="#0B2846" stroke-width="0.146432"/>
<path d="M125.101 115.812L124.123 115.975C118.881 110.235 114.845 108.297 106.349 106.354C113.034 106.354 121.024 109.778 125.101 115.812Z" fill="#0B2846" stroke="#0B2846" stroke-width="0.146432"/>
<path d="M116.621 105.702C122.166 108.311 126.405 114.507 126.405 114.507C126.405 114.507 121.631 109.289 116.621 106.843C111.784 104.481 108.447 104.564 103.087 104.071C92.4879 103.097 81.2365 109.941 71.9417 108.474C70.1481 107.985 68.1914 107.822 70.6373 103.093C77.4861 87.2754 79.1166 85.3186 79.1166 85.3186C79.1166 85.3186 73.7355 97.8746 71.2895 104.071C70.4527 106.191 74.2248 107.332 78.4643 106.68C88.5745 105.376 95.0971 102.114 103.739 102.277C108.9 102.823 112.077 103.196 116.621 105.702Z" fill="#0B2846" stroke="#0B2846" stroke-width="0.146432"/>
<path d="M82.1862 85.3168C82.1862 85.3168 88.4095 85.7287 96.4633 82.6791C104.663 80.1165 116.783 78.8705 124.017 85.2895" stroke="black" stroke-width="0.292864"/>
<path d="M173.385 85.3207C173.385 85.3207 167.162 85.7327 159.108 82.683C150.908 80.1204 138.789 78.8744 131.554 85.2934" stroke="black" stroke-width="0.292864"/>
<path d="M80.1363 90.8451C80.1363 90.8451 86.5792 91.3316 95.0759 88.101C103.727 85.3854 116.51 84.06 124.137 90.8451" stroke="black" stroke-width="0.292864"/>
<path d="M175.582 91.1142C175.582 91.1142 169.139 91.6007 160.642 88.37C151.991 85.6544 139.208 84.329 131.581 91.1142" stroke="black" stroke-width="0.292864"/>
<path d="M77.791 97.1328C77.791 97.1328 84.6365 97.5693 93.5096 94.1239C102.542 91.2231 115.881 89.7805 123.815 96.937" stroke="black" stroke-width="0.292864"/>
<path d="M177.633 96.0791C177.633 96.0791 170.788 96.5156 161.915 93.0702C152.883 90.1694 139.544 88.7268 131.61 95.8833" stroke="black" stroke-width="0.292864"/>
<path d="M75.7011 102.133C75.7011 102.133 82.7144 102.641 91.753 99.4444C100.962 96.7732 114.598 95.5591 122.812 102.54" stroke="black" stroke-width="0.292864"/>
<path d="M178.698 101.018C178.698 101.018 171.685 101.526 162.646 98.329C153.438 95.6577 139.802 94.4437 131.587 101.424" stroke="black" stroke-width="0.292864"/>
<path d="M148.542 199.822C143.753 202.458 138.706 203.896 128.803 205.388L128.544 204.676C126.299 204.833 125.264 204.869 123.48 204.931L123.366 204.935L122.978 203.835C119.714 204.866 117.621 204.969 113.335 204.353C113.002 204.305 112.399 204.214 112.041 204.158C104.446 203.211 101.63 202.004 99.7444 198.398C98.3227 195.68 98.9678 190.115 101.492 178.206C96.7026 176.588 95.8613 170.57 99.6149 165.522C105.099 159.835 106.394 158.561 107.316 156.073C107.966 151.903 108.329 149.579 108.805 148.177C109.702 145.935 110.844 144.695 112.429 143.388C113.788 142.482 114.759 142.029 116.247 141.77C118.249 141.576 119.392 141.569 120.842 141.9C122.746 142.594 123.521 143.013 124.79 144.618C126.043 144.961 126.698 145.325 127.444 145.977C128.695 147.407 129.11 148.125 129.126 149.86C129.2 151.141 128.958 152.014 128.22 153.743C128.592 154.773 128.733 155.261 128.867 156.202C132.344 154.641 133.856 154.661 135.404 156.526C135.853 156.129 136.188 156.012 136.892 155.943C137.099 155.196 138.122 154.261 138.122 154.261C138.122 154.261 138.147 153.589 138.122 153.161C137.403 153.432 136.698 153.743 135.986 153.161C133.333 150.572 132.696 149.842 132.168 147.724C131.912 146.311 131.736 145.323 131.586 143.906C131.566 143.717 131.546 143.597 131.527 143.388C131.503 143.127 131.479 142.848 131.456 142.547C131.207 141.698 131.17 141.104 131.068 140.088C128.867 138.847 128.141 136.522 128.156 135.234C128.28 134.264 128.7 133.415 130.227 131.221C130.877 132.474 131.711 132.96 133.527 132.969C134.78 132.914 135.485 132.805 137.022 132.127C138.977 131.556 139.981 131.409 141.293 132.063C142.227 132.538 142.766 132.845 143.3 134.392C145.185 133.58 146.032 134.049 147.183 135.557C147.622 136.65 147.93 138.242 147.442 140.67C145.955 146.298 145.421 147.209 144.529 148.371C144.74 149.7 145.03 150.602 145.512 151.866C145.512 151.864 145.512 151.864 145.512 151.866C145.52 151.861 146.007 151.503 146.924 151.866L148.948 154.906C153.057 158.022 155.725 160.797 157.343 163.321C158.961 165.845 159.608 171.087 157.084 183.384C153.913 194.904 151.325 198.29 148.542 199.822Z" fill="#EFEFEF"/>
<path d="M148.948 154.906C153.057 158.022 155.725 160.797 157.343 163.321C158.961 165.845 159.608 171.087 157.084 183.384C153.913 194.904 151.325 198.29 148.542 199.822C143.753 202.458 138.706 203.896 128.803 205.388L128.544 204.676M148.948 154.906L146.924 151.866M148.948 154.906C145.787 158.236 143.789 159.374 139.74 159.827M146.924 151.866C146 151.5 145.512 151.866 145.512 151.866M146.924 151.866C146.794 152.547 146.402 152.803 145.953 153.161M145.512 151.866C145.03 150.602 144.74 149.7 144.529 148.371M145.512 151.866C145.506 151.822 145.665 152.765 145.953 153.161M144.529 148.371C145.421 147.209 145.955 146.298 147.442 140.67C147.93 138.242 147.622 136.65 147.183 135.557C146.032 134.049 145.185 133.58 143.3 134.392C142.766 132.845 142.227 132.538 141.293 132.063C139.981 131.409 138.977 131.556 137.022 132.127C135.485 132.805 134.78 132.914 133.527 132.969C131.711 132.96 130.877 132.474 130.227 131.221C128.7 133.415 128.28 134.264 128.156 135.234C128.141 136.522 128.867 138.847 131.068 140.088C131.17 141.104 131.207 141.698 131.456 142.547M144.529 148.371C144.335 147.724 144.221 147.271 144.221 146.495M131.456 142.547C131.78 141.706 131.78 141.123 131.909 140.152C133.98 140.152 135.08 139.91 136.504 139.311C140.193 137.758 139.934 136.742 142.005 134.91C140.387 136.528 139.352 137.369 139.805 139.764C140.323 141.058 140.97 141.706 142.199 142.612C142.458 143.388 142.394 145.136 143.17 144.294C143.688 143.323 143.817 141.77 145.241 141.9C145.953 141.964 146.535 143.194 145.953 144.618C145.629 145.409 145.192 146.236 144.221 146.495M131.456 142.547C131.479 142.848 131.503 143.127 131.527 143.388C131.546 143.597 131.566 143.717 131.586 143.906C131.736 145.323 131.912 146.311 132.168 147.724C132.696 149.842 133.333 150.572 135.986 153.161C136.698 153.743 137.403 153.432 138.122 153.161M138.122 153.161C138.147 153.589 138.122 154.261 138.122 154.261M138.122 153.161C141.84 151.654 143.107 150.376 143.753 146.495H144.221M138.122 154.261C138.122 154.261 137.099 155.196 136.892 155.943M138.122 154.261C138.171 155.256 138.243 155.731 138.399 156.526M136.892 155.943C136.188 156.012 135.853 156.129 135.404 156.526C133.856 154.661 132.344 154.641 128.867 156.202M136.892 155.943C137.641 156.068 138.06 156.254 138.399 156.526M128.867 156.202C128.733 155.261 128.592 154.773 128.22 153.743C128.958 152.014 129.2 151.141 129.126 149.86C129.11 148.125 128.695 147.407 127.444 145.977C126.698 145.325 126.043 144.961 124.79 144.618C123.521 143.013 122.746 142.594 120.842 141.9C119.392 141.569 118.249 141.576 116.247 141.77C114.759 142.029 113.788 142.482 112.429 143.388C110.844 144.695 109.702 145.935 108.805 148.177C108.329 149.579 107.966 151.903 107.316 156.073C106.394 158.561 105.099 159.835 99.6149 165.522C95.8613 170.57 96.7026 176.588 101.492 178.206M128.867 156.202C125.761 157.82 124.143 159.891 124.726 163.321C124.835 163.853 124.931 164.113 125.179 164.486C125.083 164.112 125.078 163.925 125.179 163.645C125.502 164.359 125.772 164.628 126.279 165.069C125.909 164.578 125.735 164.289 125.761 163.645C126.145 163.669 126.489 163.643 126.796 163.576M101.492 178.206C98.9678 190.115 98.3227 195.68 99.7444 198.398C101.63 202.004 104.446 203.211 112.041 204.158C112.399 204.214 113.002 204.305 113.335 204.353M101.492 178.206C103.692 170.958 105.237 171.005 105.569 170.505C107.511 169.211 108.546 169.016 110.099 168.369M122.978 203.835L123.366 204.935C125.221 204.871 126.252 204.837 128.544 204.676M122.978 203.835C122.049 201.163 122.063 199.754 122.202 196.845M122.978 203.835C119.714 204.866 117.621 204.969 113.335 204.353M128.544 204.676C128.828 201.205 128.026 194.968 128.026 194.968M128.026 194.968L122.202 196.845M128.026 194.968C133.64 193.17 136.569 191.862 141.746 189.985M128.026 194.968C131.502 193.595 133.443 192.594 136.698 190.309M128.026 194.968C128.026 194.968 127.619 195.104 126.991 195.31M122.202 196.845C121.355 196.451 120.925 196.227 120.001 196.069C119.191 196.008 118.495 195.965 117.865 195.924M122.202 196.845C123.712 196.382 125.768 195.712 126.991 195.31M113.335 204.353C113.012 204.158 112.882 203.511 113.529 203.382C114.5 203.188 116.312 203.058 117.865 202.476C115.406 203.188 111.458 203.382 111.458 203.382C110.746 203.511 110.293 202.411 111.005 202.217C113.594 202.023 114.759 202.023 117.477 201.505C114.629 202.047 111.223 201.958 110.423 201.958C109.905 201.958 109.776 200.987 110.423 200.858C111.07 200.664 115.083 200.858 117.477 200.081C114.565 200.534 113.274 200.599 110.423 200.599C109.97 200.599 109.452 199.499 110.617 199.369C113.356 199.065 117.089 198.334 117.671 197.945C116.179 197.597 115.341 197.348 114.176 196.716C113.594 196.457 113.529 195.441 114.176 195.551C115.419 195.762 116.482 195.836 117.865 195.924M141.746 189.985C144.096 189.374 144.31 189.093 146.6 190.956M141.746 189.985C142.721 187.622 143.577 186.731 146.018 186.426M141.746 189.985C141.801 189.508 142.007 188.637 142.329 187.72M144.853 178.983C145.529 175.414 147.571 168.046 149.318 165.975C147.571 168.046 145.527 175.424 144.853 178.983ZM144.853 178.983C144.141 175.812 143.137 173.395 140.776 170.505M144.853 178.983C144.7 180.447 144.312 181.955 143.858 183.384M140.776 170.505C140.325 169.919 139.934 169.405 139.222 168.758L138.705 169.146M140.776 170.505C139.262 171.778 137.314 172.636 133.139 174.259C133.233 173.6 133.283 173.204 133.162 172.123M138.705 169.146C138.449 168.49 138.353 168.059 138.252 167.399M138.705 169.146C137.044 170.146 134.692 171.929 134.692 171.929C134.692 171.929 134.465 171.708 134.433 171.396M138.252 167.399C138.872 166.987 139.204 166.624 139.74 165.522M138.252 167.399C138.249 167.063 138.218 166.877 138.122 166.557M139.74 165.522C140.063 164.824 140.113 164.496 139.74 163.451M139.74 165.522C139.458 166.15 138.705 166.687 138.122 166.557M139.74 163.451C139.854 162.143 139.963 161.302 139.74 159.827M139.74 163.451C139.093 162.609 137.993 162.933 137.734 164.292C137.54 164.939 137.216 164.875 137.087 164.292C137.022 164.001 136.912 163.737 136.828 162.933C135.235 162.047 134.912 161.514 134.822 160.668C134.433 161.91 129.46 163.079 131.068 159.827C129.645 161.972 128.977 163.101 126.796 163.576M139.74 159.827C139.754 159.029 139.579 158.434 139.028 157.173M145.953 153.161C143.967 155.226 142.654 156.346 139.028 157.173M139.028 157.173C138.806 156.916 138.619 156.703 138.399 156.526M126.796 163.576C126.796 164.551 127.12 165.198 128.026 167.075C128.008 168.689 128.285 169.534 129.126 170.246M129.126 170.246C130.73 171.427 131.521 171.799 133.139 171.929M129.126 170.246V171.384M133.139 171.929C133.569 171.836 134.006 171.648 134.433 171.396M133.139 171.929C133.147 171.996 133.155 172.061 133.162 172.123M138.122 166.557C138.122 167.725 136.381 170.242 134.433 171.396M110.099 168.369C109.905 171.735 110.941 173.87 111.911 175.618C110.358 179.824 111.005 182.284 112.882 183.06M110.099 168.369C111.394 165.42 112.429 164.098 115.406 162.998M112.882 183.06C111.199 186.879 110.437 189.175 109.905 192.897M112.882 183.06C113.408 181.89 113.723 181.183 114.888 179.824M109.905 192.897C109.826 185.475 110.004 181.773 107.252 174.518M109.905 192.897C108.636 191.65 107.89 191.299 106.216 191.215M109.905 192.897L110.423 193.739M110.423 193.739C107.689 192.768 106.483 193.054 104.21 194.968M110.423 193.739C112.817 194.386 114.813 194.781 117.865 195.924M114.888 179.824C115.277 179.112 115.531 178.676 115.794 177.818C116.356 178.006 116.584 178.282 116.895 178.401M114.888 179.824C116.477 180.427 117.709 180.955 118.836 181.416M116.895 178.401C117.435 177.675 117.348 176.2 116.895 176.265M116.895 178.401C118.963 179.238 119.949 179.74 121.554 180.666M116.895 176.265C115.989 176.524 115.147 176.524 114.5 175.877C113.788 175.165 113.723 173.547 114.888 173.547C115.859 173.547 116.377 175.1 117.024 175.1C117.089 174.453 116.571 173.547 116.506 172.382C119.678 169.728 121.166 165.845 120.454 164.486C121.037 166.039 122.978 165.91 124.143 168.499M116.895 176.265V175.877C117.998 176.607 118.616 177.029 119.742 177.43C120.676 177.656 121.518 177.664 122.202 177.582M124.143 168.499C124.56 169.664 124.661 170.57 124.855 171.411C126.214 172.77 125.243 175.165 125.243 175.165C125.243 175.165 125.142 175.353 124.983 175.618M124.143 168.499C124.399 168.602 124.59 168.623 124.726 168.569M121.554 180.666L122.007 180.407C122.125 179.584 122.173 179.037 122.192 178.401M121.554 180.666C122.077 181.511 122.368 181.983 122.849 182.801C121.377 182.423 120.182 181.967 118.836 181.416M121.554 180.666C121.964 181.291 123.043 182.607 123.043 182.607C123.043 182.607 123.69 181.054 123.366 178.401M122.202 177.582C122.825 177.508 123.316 177.359 123.625 177.236C124.064 177.06 124.65 176.172 124.983 175.618M122.202 177.582C122.201 177.884 122.199 178.149 122.192 178.401M124.983 175.618C126.137 176.804 126.365 178.077 126.149 179.242M126.149 179.242C126.119 179.406 126.201 179.06 126.149 179.242ZM126.149 179.242C127.185 177.818 128.286 176.486 130.097 174.518M126.149 179.242C125.266 178.707 124.319 178.466 123.366 178.401M126.149 179.242C127.158 180.011 127.726 180.76 129.062 182.09M122.192 178.401C122.745 178.36 122.951 178.372 123.366 178.401M124.726 168.569C125.163 168.394 125.036 167.435 124.726 165.91C124.381 165.069 123.366 164.063 122.784 163.904C122.072 163.71 121.526 163.718 120.454 163.904C119.765 162.995 118.966 162.609 116.895 162.674C116.394 162.746 115.823 162.896 115.406 162.998M124.726 168.569C126.271 169.015 127.022 169.313 128.026 169.987C128.423 170.361 128.803 170.843 129.126 171.384M130.097 174.518C130.097 173.483 129.7 172.343 129.126 171.384M130.097 174.518C131.408 172.937 132.04 172.634 133.162 172.123M136.698 190.309C136.594 189.115 136.411 188.637 135.598 187.396M136.698 190.309C136.961 190.177 137.095 190.076 137.281 189.791M137.281 189.791C137.065 188.385 136.727 188.028 135.857 186.943M137.281 189.791C137.791 189.476 138.001 189.321 138.446 188.755M138.446 188.755C139.772 188.696 140.756 188.447 142.329 187.72M138.446 188.755C138.43 187.39 138.034 186.815 136.957 185.973M142.329 187.72C142.641 186.83 143.038 185.793 143.426 184.678C143.573 184.257 143.719 183.824 143.858 183.384M136.957 185.973C138.117 184.242 139.065 183.54 140.97 182.478C141.487 182.284 141.876 182.478 141.552 182.866C140.84 183.449 140.064 183.902 139.934 184.225C140.128 184.355 141.746 183.254 142.717 182.866C143.623 182.413 143.882 182.931 143.429 183.254L141.164 185.002C142.135 184.484 142.782 184.031 143.858 183.384M136.957 185.973C136.125 186.429 135.42 186.771 134.822 187.03M126.991 195.31C125.592 195.391 124.156 195.247 123.302 194.774C122.447 194.302 121.813 193.609 120.131 192.056M120.131 192.056C125.243 191.538 130.55 189.467 132.233 187.72M120.131 192.056C120.08 191.945 120.114 191.967 120.066 191.862M132.233 187.72C132.233 187.72 133.067 186.888 133.851 185.973C134.271 186.352 134.479 186.586 134.822 187.03M132.233 187.72C132.233 187.72 133.045 187.797 134.822 187.03M126.408 185.002C127.25 185.002 127.603 185.068 128.285 185.649M126.408 185.002C126.829 184.418 127.516 183.782 129.062 182.09M126.408 185.002C125.181 185.486 124.164 185.922 123.043 186.414M130.356 180.342C133.398 175.941 133.851 175.488 135.016 174.518M130.356 180.342C129.892 178.097 130.291 177.753 131.391 175.165M130.356 180.342C129.953 180.925 129.515 181.378 129.062 182.09M119.047 188.691C119.036 188.527 119.03 188.355 119.03 188.173C120.685 187.459 121.916 186.908 123.043 186.414M119.047 188.691C117.948 188.375 118.355 188.46 117.153 188.173M119.047 188.691C119.127 189.873 119.568 190.776 120.066 191.862M117.153 188.173C116.118 187.526 115.182 186.583 114.694 185.649M117.153 188.173L114.824 187.526C114.241 187.396 114.241 187.785 114.435 188.173C115.083 188.691 115.511 188.76 116.312 188.95C114.787 189.149 113.961 189.212 112.559 189.208C111.911 189.338 112.105 189.856 112.559 190.05M112.559 190.05L115.6 190.309M112.559 190.05C111.976 190.309 112.041 190.762 112.429 190.956L112.817 191.085M115.859 191.279L112.817 191.085M112.817 191.085C112.494 191.085 112.3 191.862 113.141 192.056L114.63 192.25M116.118 192.186L114.63 192.25M114.63 192.25C113.853 192.38 114.176 192.962 114.63 193.027C116.959 193.027 118.06 192.768 120.066 191.862M123.043 186.414C121.63 184.187 120.637 183.178 118.836 181.416M115.406 162.998C115.549 162.102 115.538 161.422 115.522 160.215M115.522 160.215C116.568 161.962 120.484 163.645 121.231 163.257C124.467 161.574 125.696 159.115 125.761 157.108C125.989 156.537 126.419 155.664 126.473 155.022C126.48 154.936 126.481 154.855 126.473 154.779C126.474 154.713 126.476 154.648 126.477 154.584C126.531 151.876 126.386 150.705 125.437 148.113M115.522 160.215C115.018 159.374 114.759 158.92 114.565 157.432C113.853 157.561 113.248 157.407 112.688 156.526C112.235 155.814 111.976 155.49 112.235 154.196C112.623 153.419 113.4 153.161 113.918 153.678C114.306 154.067 114.306 154.455 114.759 155.102C115.394 155.666 115.666 155.74 115.794 154.843C115.859 154.392 115.924 154.067 116.053 153.419C119.03 153.355 124.272 150.831 125.437 148.113M125.437 148.113C125.656 147.541 125.724 147.086 125.761 146.495" stroke="black" stroke-width="0.439296"/>
<path d="M120.195 159.115C121.4 159.705 122.041 159.89 123.108 159.892C123.043 160.215 123.043 160.474 122.59 160.798C121.878 161.251 121.231 161.057 120.713 160.539C120.26 160.086 120.26 159.697 120.195 159.115Z" fill="#EFEFEF" stroke="black" stroke-width="0.439296"/>
<path d="M141.617 185.779C141.695 185.813 143.383 184.76 143.364 184.678" stroke="black" stroke-width="0.439296" stroke-linecap="round"/>
<path d="M141.681 186.879C141.79 186.912 142.754 186.386 142.781 186.297" stroke="black" stroke-width="0.439296" stroke-linecap="round"/>
<path d="M133.851 185.844C134.368 185.326 137.022 182.608 139.287 179.631" stroke="black" stroke-width="0.439296" stroke-linecap="round"/>
<path d="M125.696 185.261C125.865 184.11 125.799 183.382 125.696 182.09" stroke="black" stroke-width="0.439296"/>
<path d="M123.82 154.921C123.237 155.504 123.302 157.122 123.755 157.575C124.143 158.028 123.82 158.351 123.496 158.481C123.172 158.61 122.719 158.675 122.331 158.416" stroke="black" stroke-width="0.439296" stroke-linecap="round"/>
<path d="M122.331 170.829C122.266 172.9 123.884 172.965 123.431 173.483C123.172 173.677 122.84 173.809 122.654 173.742" stroke="black" stroke-width="0.439296" stroke-linecap="round"/>
<path d="M130.615 165.392C131.824 167.075 130.162 167.399 131.068 167.852C131.392 168.014 131.986 167.882 132.104 167.722" stroke="black" stroke-width="0.439296" stroke-linecap="round"/>
<path d="M119.483 170.505C120.13 170.052 120.566 170.716 120.001 171.088C119.265 171.427 118.827 171.707 118.017 172.304C118.337 171.723 118.448 171.476 119.483 170.505Z" fill="black"/>
<path d="M117.995 172.318L118.017 172.304M118.017 172.304C118.827 171.707 119.265 171.427 120.001 171.088C120.566 170.716 120.13 170.052 119.483 170.505C118.448 171.476 118.337 171.723 118.017 172.304Z" stroke="black" stroke-width="0.146432"/>
<path d="M128.479 164.163C129.114 163.899 129.644 164.422 128.803 164.681C128.479 164.875 128.155 165.134 127.508 165.393C127.573 165.069 127.896 164.551 128.479 164.163Z" fill="black" stroke="black" stroke-width="0.146432"/>
<path d="M132.374 162.991C131.596 163.126 131.711 163.845 132.374 163.71C133.138 163.451 133.825 163.469 134.821 163.321C134.184 163.135 133.793 162.949 132.374 162.991Z" fill="black" stroke="black" stroke-width="0.146432"/>
<path d="M118.707 173.677C119.547 173.387 119.762 173.151 120.066 173.029C120.39 172.9 120.649 172.965 120.972 173.029" stroke="black" stroke-width="0.439296" stroke-linecap="round"/>
<path d="M128.327 167.016C129.066 166.778 129.266 166.555 129.534 166.452C129.82 166.343 130.037 166.423 130.309 166.507" stroke="black" stroke-width="0.439296" stroke-linecap="round"/>
<path d="M124.586 171.259C124.054 171.427 123.857 171.388 123.658 171.441C123.446 171.497 123.34 171.626 123.2 171.78" stroke="black" stroke-width="0.439296" stroke-linecap="round"/>
<path d="M134.291 165.144C133.613 165.359 133.362 165.309 133.109 165.376C132.84 165.447 132.704 165.612 132.527 165.808" stroke="black" stroke-width="0.439296" stroke-linecap="round"/>
<path d="M138.122 145.266C137.669 145.589 137.471 145.7 137.022 145.071C136.883 144.877 137.863 144.683 139.675 144.683C139.093 144.942 138.64 145.007 138.122 145.266Z" fill="black" stroke="black" stroke-width="0.292864"/>
<path d="M133.629 145.852C134.057 146.027 134.232 146.075 134.298 145.369C134.318 145.152 133.584 145.241 132.362 145.74C132.852 145.819 133.182 145.755 133.629 145.852Z" fill="black" stroke="black" stroke-width="0.292864"/>
<path d="M121.295 153.485C120.153 153.36 119.548 153.485 118.188 153.808C119.289 152.967 120.583 152.449 121.877 152.902C122.266 153.096 122.266 153.679 121.295 153.485Z" fill="black" stroke="black" stroke-width="0.146432"/>
<path d="M119.936 155.944C119.483 155.68 118.771 155.361 118.771 155.297C119.742 155.685 120.324 155.62 121.036 155.75C121.489 155.944 121.424 156.591 120.583 156.267C120.398 156.215 120.191 156.092 119.936 155.944Z" fill="black" stroke="black" stroke-width="0.292864"/>
<path d="M124.834 157.093C125.191 157.086 125.703 157.141 125.737 157.097C125.063 156.992 124.82 156.626 124.401 156.547C124.08 156.507 123.773 156.966 124.35 157.066C124.468 157.1 124.632 157.096 124.834 157.093Z" fill="black" stroke="black" stroke-width="0.292864"/>
<path d="M134.822 143.971C135.598 146.754 133.721 147.012 134.692 147.854C135.598 148.242 136.187 147.826 136.215 147.715" stroke="black" stroke-width="0.439296" stroke-linecap="round"/>
<path d="M122.719 169.858C123.301 169.534 123.662 169.399 124.272 169.47C124.301 169.317 124.283 169.222 123.884 168.952C123.689 168.887 123.366 168.822 122.977 169.081C122.716 169.338 122.657 169.508 122.719 169.858Z" fill="black" stroke="black" stroke-width="0.146432"/>
<path d="M124.143 173.935C123.172 174.388 122.589 174.647 121.489 174.906C121.683 175.424 122.201 175.553 122.654 175.618C123.107 175.682 123.858 175.294 124.013 175.035C124.207 174.712 124.337 174.453 124.143 173.935Z" fill="#EFEFEF" stroke="black" stroke-width="0.439296"/>
<path d="M134.008 168.126C133.034 168.537 132.098 168.932 131.003 169.146C131.177 169.671 131.847 169.776 132.297 169.858C132.747 169.94 133.333 169.664 133.591 169.405C133.85 169.146 134.045 168.693 134.044 168.111L134.008 168.126Z" fill="#EFEFEF" stroke="black" stroke-width="0.439296"/>
<path d="M136.533 142.723C139.67 143.064 140.3 143.029 140.1 142.723C138.747 142.354 137.886 142.108 136.533 141.8C135.672 141.8 135.734 142.636 136.533 142.723Z" fill="black" stroke="black" stroke-width="0.146432"/>
<path d="M136.533 150.963C137.64 150.656 138.317 149.733 138.686 148.811C136.718 149.241 136.103 149.303 134.75 149.303C135.057 150.41 135.303 150.963 136.533 150.963Z" stroke="black" stroke-width="0.439296"/>
<path d="M133.458 143.153C132.658 143.645 132.419 143.651 131.674 143.891V143.276C132.347 142.892 132.043 143.03 132.904 142.538C133.396 142.308 134.565 142.292 133.458 143.153Z" fill="black" stroke="black" stroke-width="0.146432"/>
<path d="M126.446 154.346L126.385 154.961C125.893 154.654 126.016 154.592 125.155 154.408C124.786 154.285 124.847 153.608 125.585 153.793C125.893 153.87 126.134 154.106 126.446 154.346Z" fill="black" stroke="black" stroke-width="0.146432"/>
<path d="M67.6587 219.666L67.073 220.252C65.8283 222.449 62.8997 222.522 58.946 222.229C52.7958 221.497 46.4993 215.859 45.1814 212.784C54.4121 212.255 58.946 214.029 65.5268 218.861C61.979 215.589 58.5294 211.85 55.2852 207.709C48.4761 209.856 38.6651 205.806 35.2972 196.311C41.9599 196.603 46.9348 198.716 52.9324 204.584C50.2951 200.939 47.8215 197.022 45.5751 192.869C39.3973 194.187 31.2703 188.676 28.6345 178.519C33.9061 179.178 38.8116 182.546 43.4242 188.676C41.4563 184.622 39.7087 180.372 38.2346 175.956C33.2471 176.249 25.4862 170.758 24.8273 158.97C30.0989 161.167 33.9061 165.194 36.9593 171.856C35.4453 166.607 34.3232 161.148 33.6767 155.529C26.9506 154.358 23.4362 144.62 25.2666 138.543C29.147 141.179 31.1239 144.327 33.282 151.283C32.948 146.566 32.9546 141.748 33.3493 136.859C27.097 134.882 26.438 125.803 29.0006 119.8C31.9292 122.802 33.3493 127.195 33.7794 132.686C34.4605 127.259 35.6286 121.755 37.3472 116.212L38.0062 116.505C36.4848 122.015 35.423 127.542 34.8139 133.052C37.2984 125.55 39.6169 123.314 44.1563 121.337C44.1563 129.098 40.1294 135.322 34.4386 137.225C34.0985 142.135 34.1177 147.024 34.491 151.868C35.7365 144.034 38.3723 141.252 42.1795 138.543C43.351 148.134 39.1776 154.358 34.8414 155.529C35.5024 161.303 36.6698 167.003 38.3347 172.589C38.3347 162.338 41.0813 159.336 44.2296 156.042C46.3528 164.022 45.2546 171.856 39.4037 175.956C41.146 181.128 43.3208 186.191 45.921 191.112C43.2777 184.596 44.9617 176.176 48.4029 171.856C51.6244 177.567 52.503 187.598 46.8709 192.869C49.3267 197.311 52.1332 201.632 55.2852 205.806C51.3315 198.946 52.4298 188.989 55.2852 185.108C60.7032 193.382 60.4103 201.655 56.37 207.22C59.1653 210.803 62.2187 214.274 65.5268 217.616C63.0461 210.441 62.0211 205.023 63.5586 198.141C66.2676 200.85 71.4659 207.147 70.2945 214.981C70.1084 216.225 69.4977 217.739 67.6587 219.666Z" fill="url(#paint2_linear_104_701)"/>
<path d="M188.341 219.739L188.927 220.325C190.172 222.522 193.1 222.595 197.054 222.302C203.204 221.57 209.501 215.932 210.819 212.857C201.588 212.328 197.054 214.102 190.473 218.934C194.021 215.662 197.471 211.923 200.715 207.782C207.524 209.929 217.335 205.879 220.703 196.384C214.04 196.676 209.065 198.789 203.068 204.657C205.705 201.012 208.179 197.095 210.425 192.942C216.603 194.26 224.73 188.749 227.365 178.592C222.094 179.251 217.188 182.619 212.576 188.749C214.544 184.695 216.291 180.445 217.765 176.029C222.753 176.322 230.514 170.831 231.173 159.043C225.901 161.24 222.094 165.267 219.041 171.929C220.555 166.68 221.677 161.221 222.323 155.602C229.049 154.431 232.564 144.693 230.733 138.616C226.853 141.252 224.876 144.4 222.718 151.356C223.052 146.639 223.045 141.821 222.651 136.932C228.903 134.955 229.562 125.876 226.999 119.873C224.071 122.875 222.651 127.268 222.221 132.759C221.539 127.332 220.371 121.828 218.653 116.285L217.994 116.578C219.515 122.088 220.577 127.615 221.186 133.125C218.702 125.623 216.383 123.387 211.844 121.41C211.844 129.171 215.871 135.395 221.561 137.298C221.901 142.208 221.882 147.097 221.509 151.941C220.264 144.107 217.628 141.325 213.82 138.616C212.649 148.207 216.822 154.431 221.159 155.602C220.498 161.376 219.33 167.076 217.665 172.662C217.665 162.411 214.919 159.409 211.77 156.115C209.647 164.095 210.745 171.929 216.596 176.029C214.854 181.201 212.679 186.264 210.079 191.185C212.722 184.669 211.038 176.249 207.597 171.929C204.376 177.64 203.497 187.671 209.129 192.942C206.673 197.384 203.867 201.705 200.715 205.879C204.668 199.019 203.57 189.062 200.715 185.181C195.297 193.455 195.59 201.728 199.63 207.293C196.835 210.876 193.781 214.347 190.473 217.689C192.954 210.514 193.979 205.096 192.441 198.214C189.732 200.923 184.534 207.22 185.706 215.054C185.892 216.298 186.502 217.812 188.341 219.739Z" fill="url(#paint3_linear_104_701)"/>
<path d="M73.9136 214.001C74.401 213.399 75.2719 213.282 75.9084 213.723C104.763 233.703 144.348 237.365 180.281 214.303C180.916 213.896 181.763 214.022 182.237 214.609L193.814 228.954C194.344 229.611 194.201 230.588 193.506 231.068C148.423 262.25 100.407 256.93 62.3856 230.707C61.6886 230.226 61.5525 229.252 62.0857 228.594L73.9136 214.001Z" fill="url(#paint4_linear_104_701)"/>
<path d="M76.9357 233.038C76.6145 232.87 76.2521 232.66 75.8484 232.407C75.6991 232.315 75.5055 232.2 75.2676 232.062C75.0407 231.929 74.7833 231.788 74.4953 231.637L73.3567 231.064C73.1515 230.971 72.8717 230.832 72.5172 230.647C72.495 230.636 72.5013 230.597 72.536 230.53C72.5707 230.464 72.5991 230.436 72.6212 230.448C73.0422 230.668 73.3613 230.799 73.5785 230.842C73.8068 230.89 73.9947 230.855 74.1421 230.734C74.3063 230.609 74.4752 230.379 74.6486 230.047L78.6636 222.354C78.8371 222.021 78.931 221.76 78.9455 221.57C78.96 221.381 78.882 221.206 78.7115 221.047C78.5578 220.882 78.2705 220.69 77.8496 220.47C77.8274 220.458 77.8337 220.419 77.8684 220.353C77.9031 220.287 77.9315 220.259 77.9536 220.271L78.7758 220.721C79.2295 220.986 79.5948 221.191 79.8718 221.335C80.2927 221.555 80.7168 221.755 81.144 221.936C81.643 222.168 81.9867 222.333 82.175 222.431C83.3271 223.033 84.2306 223.786 84.8856 224.692C85.5406 225.597 85.9123 226.559 86.0008 227.578C86.1004 228.603 85.9016 229.591 85.4044 230.544C84.8437 231.618 84.0917 232.438 83.1485 233.003C82.2222 233.563 81.2085 233.844 80.1074 233.847C79.0121 233.84 77.9549 233.57 76.9357 233.038ZM76.8997 232.702C77.7859 233.164 78.6678 233.392 79.5454 233.385C80.4288 233.367 81.2467 233.096 81.9991 232.572C82.7684 232.044 83.4189 231.27 83.9508 230.25C84.4538 229.287 84.7277 228.316 84.7726 227.339C84.8175 226.362 84.6206 225.469 84.1819 224.663C83.7431 223.856 83.0807 223.221 82.1945 222.759C81.7181 222.51 81.3326 222.344 81.0378 222.261C80.7541 222.183 80.508 222.196 80.2994 222.298C80.0908 222.401 79.8998 222.618 79.7264 222.951L75.8241 230.428C75.6507 230.76 75.5591 231.044 75.5494 231.278C75.5509 231.519 75.653 231.755 75.8557 231.988C76.0753 232.215 76.4233 232.453 76.8997 232.702Z" fill="#0B2846"/>
<path d="M85.249 236.939C85.2258 236.929 85.2285 236.89 85.2569 236.82C85.2853 236.751 85.311 236.721 85.3342 236.731C85.6464 236.858 85.8895 236.924 86.0635 236.928C86.2538 236.925 86.411 236.854 86.5351 236.716C86.6592 236.578 86.7923 236.335 86.9343 235.988L88.262 232.744C88.4324 232.328 88.5092 232.008 88.4925 231.785C88.4873 231.567 88.3806 231.416 88.1724 231.33C87.9643 231.245 87.6709 231.22 87.2924 231.254L87.2751 231.247C87.2288 231.228 87.206 231.185 87.2065 231.117C87.207 231.05 87.2294 231.012 87.2736 231.003L89.9546 230.885L90.0311 230.896C90.0542 230.906 90.076 230.935 90.0965 230.984C90.1217 231.021 90.1273 231.057 90.1131 231.092C90.0799 231.173 89.9795 231.402 89.8117 231.779C89.6439 232.155 89.4535 232.604 89.2405 233.125L87.9057 236.386C87.7637 236.733 87.6884 236.999 87.68 237.184C87.6715 237.37 87.7283 237.528 87.8502 237.659C87.9769 237.778 88.1963 237.902 88.5086 238.03C88.5433 238.044 88.5464 238.086 88.518 238.155C88.4896 238.225 88.4581 238.252 88.4234 238.238C88.1574 238.129 87.9458 238.036 87.7886 237.958L86.859 237.557L85.9152 237.191C85.7486 237.136 85.5265 237.052 85.249 236.939ZM90.3414 228.654C90.1101 228.559 89.9512 228.42 89.8645 228.236C89.7777 228.052 89.7817 227.844 89.8764 227.613C89.9711 227.381 90.1138 227.231 90.3047 227.16C90.4955 227.09 90.7066 227.102 90.9379 227.197C91.1691 227.291 91.3224 227.428 91.3975 227.608C91.4726 227.787 91.4629 227.992 91.3682 228.223C91.2735 228.455 91.1365 228.608 90.9573 228.683C90.778 228.758 90.5727 228.748 90.3414 228.654Z" fill="#0B2846"/>
<path d="M93.8566 240.425C93.1675 240.201 92.6097 239.836 92.1833 239.329C91.7727 238.814 91.5176 238.225 91.418 237.562C91.3224 236.887 91.3848 236.211 91.6052 235.534C91.8566 234.761 92.2535 234.168 92.7959 233.753C93.354 233.33 93.9667 233.083 94.634 233.011C95.3171 232.931 95.9616 232.99 96.5676 233.187C97.2686 233.415 97.8245 233.787 98.2351 234.301C98.6457 234.816 98.8949 235.403 98.9825 236.062C99.0859 236.714 99.0351 237.354 98.8302 237.984C98.5904 238.721 98.2073 239.312 97.681 239.758C97.1585 240.193 96.5558 240.47 95.8731 240.589C95.2061 240.7 94.5339 240.646 93.8566 240.425ZM94.4837 240.255C95.1372 240.468 95.7176 240.4 96.2249 240.053C96.7322 239.706 97.1425 239.051 97.4558 238.088C97.6955 237.352 97.7854 236.652 97.7254 235.988C97.6773 235.329 97.4916 234.769 97.1682 234.309C96.8488 233.837 96.4158 233.512 95.8692 233.334C95.2276 233.125 94.6531 233.194 94.1458 233.542C93.6504 233.893 93.2615 234.502 92.9792 235.37C92.7433 236.095 92.6455 236.799 92.6859 237.482C92.7263 238.165 92.9024 238.755 93.2141 239.251C93.5258 239.746 93.949 240.081 94.4837 240.255Z" fill="#0B2846"/>
<path d="M102.495 236.348C102.393 236.773 102.452 237.147 102.67 237.469C102.892 237.779 103.242 238.139 103.722 238.549C104.096 238.869 104.379 239.136 104.572 239.349C104.777 239.566 104.934 239.822 105.043 240.117C105.153 240.413 105.164 240.744 105.076 241.108C104.928 241.728 104.572 242.195 104.009 242.51C103.445 242.825 102.769 242.888 101.979 242.7C101.335 242.546 100.795 242.224 100.359 241.734C100.298 241.668 100.279 241.587 100.302 241.489L100.606 240.059C100.615 240.022 100.649 240.011 100.71 240.026C100.786 240.031 100.825 240.054 100.829 240.093C100.912 240.768 101.098 241.307 101.387 241.71C101.691 242.104 102.086 242.359 102.572 242.475C102.949 242.565 103.261 242.55 103.508 242.429C103.77 242.299 103.944 242.058 104.028 241.705C104.109 241.365 104.099 241.061 103.996 240.792C103.908 240.514 103.771 240.282 103.584 240.096C103.4 239.898 103.143 239.657 102.813 239.372C102.458 239.082 102.178 238.829 101.973 238.613C101.78 238.399 101.629 238.145 101.519 237.849C101.422 237.556 101.419 237.221 101.509 236.844C101.666 236.188 102.028 235.748 102.596 235.524C103.178 235.291 103.804 235.254 104.472 235.414C104.958 235.53 105.38 235.727 105.737 236.005C105.804 236.047 105.84 236.087 105.843 236.127C105.862 236.157 105.865 236.196 105.854 236.245C105.795 236.488 105.744 236.675 105.7 236.806L105.499 237.567C105.493 237.591 105.454 237.595 105.381 237.577C105.308 237.56 105.274 237.539 105.28 237.515C105.373 237.126 105.248 236.736 104.904 236.346C104.573 235.958 104.183 235.711 103.733 235.603C103.417 235.528 103.147 235.553 102.924 235.68C102.717 235.797 102.573 236.02 102.495 236.348Z" fill="#0B2846"/>
<path d="M120.252 238.118C120.289 238.122 120.303 238.161 120.295 238.236C120.287 238.31 120.264 238.346 120.227 238.342C119.916 238.307 119.631 238.389 119.37 238.586C119.123 238.772 118.877 239.116 118.633 239.617L115.689 245.419C115.096 246.573 114.558 247.463 114.073 248.088C113.6 248.727 113.13 249.165 112.664 249.403C112.209 249.654 111.702 249.748 111.143 249.687C110.87 249.656 110.653 249.569 110.493 249.426C110.32 249.281 110.247 249.091 110.273 248.855C110.293 248.681 110.364 248.55 110.486 248.463C110.609 248.376 110.751 248.342 110.913 248.36C111.074 248.378 111.209 248.411 111.316 248.461C111.424 248.511 111.535 248.586 111.65 248.687C111.673 248.702 111.737 248.747 111.842 248.821C111.96 248.897 112.105 248.945 112.279 248.964C112.589 248.998 112.897 248.888 113.202 248.632C113.506 248.39 113.849 247.956 114.233 247.332C114.628 246.71 115.115 245.834 115.693 244.703L115.617 245.223L113.336 238.917C113.111 238.338 112.933 237.96 112.802 237.782C112.672 237.592 112.489 237.484 112.253 237.458C112.229 237.455 112.22 237.416 112.229 237.342C112.237 237.267 112.253 237.231 112.278 237.234L112.91 237.323C113.057 237.352 113.261 237.381 113.522 237.41L114.717 237.523C114.892 237.53 115.135 237.551 115.445 237.585C115.47 237.588 115.478 237.627 115.47 237.701C115.462 237.776 115.445 237.811 115.42 237.809C114.7 237.729 114.324 237.832 114.292 238.117C114.284 238.192 114.304 238.295 114.352 238.426L116.322 243.962L115.809 244.678L118.217 239.627C118.35 239.34 118.425 239.11 118.445 238.936C118.476 238.65 118.387 238.439 118.175 238.303C117.966 238.154 117.606 238.051 117.097 237.995C117.072 237.992 117.064 237.953 117.072 237.879C117.08 237.804 117.097 237.768 117.122 237.771C117.457 237.808 117.711 237.843 117.884 237.874L118.999 238.017L119.672 238.073C119.798 238.074 119.991 238.089 120.252 238.118Z" fill="#0B2846"/>
<path d="M126.377 245.595C126.352 245.595 126.339 245.558 126.336 245.483C126.334 245.408 126.346 245.37 126.371 245.37C126.845 245.356 127.194 245.315 127.417 245.246C127.64 245.177 127.787 245.054 127.856 244.877C127.938 244.687 127.974 244.404 127.963 244.03L127.712 235.355C127.701 234.981 127.649 234.707 127.557 234.535C127.477 234.362 127.323 234.248 127.097 234.192C126.882 234.123 126.538 234.095 126.063 234.109C126.038 234.11 126.024 234.073 126.022 233.998C126.02 233.923 126.031 233.885 126.056 233.884L133.588 233.666C133.701 233.663 133.758 233.717 133.762 233.83L133.866 236.133C133.867 236.171 133.83 236.197 133.756 236.211C133.693 236.213 133.661 236.195 133.66 236.158C133.604 235.497 133.389 234.991 133.016 234.639C132.643 234.275 132.157 234.101 131.557 234.119L130.414 234.152C129.99 234.164 129.672 234.205 129.462 234.273C129.251 234.342 129.105 234.459 129.022 234.623C128.939 234.788 128.902 235.027 128.911 235.339L129.16 243.92C129.172 244.32 129.23 244.612 129.335 244.796C129.453 244.968 129.669 245.087 129.983 245.152C130.31 245.218 130.811 245.241 131.485 245.221C131.523 245.22 131.543 245.257 131.545 245.332C131.547 245.407 131.529 245.445 131.492 245.446C130.98 245.461 130.58 245.466 130.292 245.462L128.606 245.492L127.332 245.548C127.108 245.567 126.789 245.583 126.377 245.595ZM132.852 241.263C132.836 240.713 132.675 240.324 132.368 240.096C132.074 239.867 131.583 239.762 130.896 239.782L128.48 239.852L128.468 239.459L130.941 239.387C131.603 239.368 132.069 239.254 132.338 239.046C132.619 238.826 132.753 238.484 132.739 238.022C132.739 237.997 132.776 237.984 132.851 237.981C132.926 237.979 132.963 237.991 132.964 238.016L132.989 239.534C133 239.896 133.014 240.171 133.032 240.358L133.077 241.256C133.078 241.281 133.04 241.295 132.966 241.297C132.891 241.299 132.853 241.288 132.852 241.263Z" fill="#0B2846"/>
<path d="M141.94 244.652C141.894 244.682 141.845 244.701 141.796 244.707C141.61 244.729 141.431 244.605 141.261 244.336C141.09 244.067 140.977 243.697 140.921 243.225L140.501 239.708C140.335 238.318 139.862 237.67 139.08 237.763C138.658 237.813 138.353 237.995 138.163 238.307C137.985 238.605 137.88 238.938 137.848 239.307C137.827 239.548 137.775 239.743 137.692 239.892C137.621 240.039 137.468 240.126 137.232 240.154C137.034 240.178 136.872 240.141 136.747 240.042C136.634 239.942 136.569 239.818 136.551 239.669C136.516 239.371 136.673 239.051 137.022 238.707C137.371 238.363 137.801 238.06 138.31 237.798C138.82 237.536 139.286 237.38 139.708 237.33C140.217 237.269 140.621 237.384 140.92 237.676C141.219 237.967 141.404 238.417 141.477 239.025L141.892 242.505C141.944 242.94 142.037 243.249 142.173 243.435C142.308 243.62 142.5 243.698 142.748 243.668C142.996 243.638 143.297 243.521 143.65 243.315L143.687 243.311C143.736 243.305 143.771 243.332 143.791 243.393C143.809 243.441 143.795 243.48 143.748 243.511L141.94 244.652ZM138.592 245.07C138.133 245.124 137.759 245.049 137.471 244.845C137.193 244.626 137.032 244.331 136.988 243.959C136.943 243.586 137.054 243.246 137.319 242.938C137.584 242.629 138.043 242.31 138.696 241.981L140.829 240.877L140.914 241.112L139.032 242.11C138.701 242.288 138.466 242.48 138.327 242.685C138.199 242.877 138.149 243.096 138.179 243.345C138.215 243.642 138.338 243.886 138.549 244.074C138.771 244.249 139.038 244.318 139.348 244.281C139.596 244.252 139.882 244.117 140.206 243.877L141.294 243.03L141.36 243.267L140.089 244.325C139.803 244.56 139.547 244.736 139.321 244.851C139.096 244.966 138.853 245.039 138.592 245.07Z" fill="#0B2846"/>
<path d="M155.039 241.929C155.003 241.938 154.976 241.905 154.959 241.832C154.942 241.76 154.952 241.719 154.988 241.71C155.316 241.633 155.553 241.546 155.697 241.448C155.838 241.338 155.918 241.19 155.939 241.006C155.957 240.809 155.925 240.534 155.842 240.181L155.161 237.28C154.993 236.562 154.74 236.057 154.401 235.764C154.063 235.471 153.626 235.388 153.091 235.513C152.665 235.613 152.262 235.862 151.88 236.259C151.508 236.642 151.22 237.114 151.018 237.675L150.894 237.473C151.237 236.635 151.619 235.993 152.04 235.548C152.471 235.087 152.967 234.792 153.526 234.66C154.171 234.509 154.706 234.576 155.133 234.861C155.559 235.146 155.859 235.659 156.033 236.401L156.864 239.942C156.95 240.306 157.043 240.567 157.144 240.723C157.244 240.879 157.383 240.975 157.558 241.011C157.73 241.035 157.981 241.008 158.309 240.931C158.346 240.922 158.372 240.954 158.39 241.027C158.407 241.1 158.397 241.141 158.36 241.15C158.081 241.215 157.854 241.262 157.681 241.29L156.691 241.503L155.71 241.752C155.543 241.805 155.319 241.863 155.039 241.929ZM150.332 243.034C150.295 243.042 150.268 243.01 150.251 242.937C150.234 242.864 150.244 242.823 150.28 242.815C150.609 242.738 150.845 242.65 150.989 242.552C151.13 242.442 151.205 242.296 151.213 242.115C151.234 241.93 151.202 241.655 151.116 241.29L150.435 238.389C150.267 237.671 150.013 237.166 149.675 236.873C149.337 236.58 148.906 236.495 148.383 236.618C147.945 236.721 147.542 236.969 147.172 237.364C146.8 237.747 146.513 238.218 146.311 238.779L146.186 238.577C146.529 237.74 146.911 237.098 147.332 236.653C147.763 236.192 148.253 235.898 148.8 235.769C149.445 235.618 149.98 235.685 150.407 235.97C150.845 236.252 151.148 236.752 151.317 237.47L152.156 241.046C152.242 241.411 152.335 241.672 152.436 241.828C152.537 241.984 152.675 242.08 152.85 242.116C153.022 242.139 153.273 242.113 153.601 242.036C153.638 242.027 153.665 242.059 153.682 242.132C153.699 242.205 153.689 242.246 153.653 242.255C153.373 242.32 153.146 242.367 152.973 242.395L151.983 242.608L150.984 242.861C150.829 242.911 150.611 242.968 150.332 243.034ZM145.642 244.134C145.605 244.143 145.579 244.111 145.561 244.038C145.544 243.965 145.554 243.924 145.59 243.915C145.919 243.838 146.155 243.751 146.299 243.653C146.44 243.543 146.515 243.397 146.524 243.215C146.544 243.031 146.512 242.756 146.426 242.391L145.579 238.778C145.481 238.364 145.363 238.078 145.223 237.918C145.083 237.758 144.897 237.706 144.666 237.76C144.471 237.805 144.164 237.974 143.745 238.265L143.708 238.273C143.66 238.285 143.617 238.269 143.582 238.226C143.555 238.168 143.563 238.121 143.606 238.085L145.488 236.585C145.509 236.567 145.544 236.553 145.593 236.541C145.702 236.515 145.851 236.628 146.038 236.879C146.225 237.131 146.37 237.475 146.473 237.913L147.467 242.147C147.552 242.512 147.639 242.774 147.728 242.933C147.829 243.089 147.967 243.185 148.142 243.22C148.314 243.244 148.565 243.217 148.893 243.14C148.93 243.132 148.957 243.164 148.974 243.237C148.991 243.31 148.981 243.351 148.945 243.359C148.665 243.425 148.444 243.47 148.283 243.495L147.294 243.708L146.295 243.962C146.139 244.011 145.922 244.069 145.642 244.134Z" fill="#0B2846"/>
<path d="M160.485 240.274C160.462 240.282 160.438 240.251 160.413 240.18C160.389 240.109 160.389 240.069 160.413 240.061C160.732 239.952 160.958 239.842 161.092 239.73C161.233 239.603 161.305 239.446 161.308 239.26C161.31 239.074 161.251 238.804 161.13 238.449L159.997 235.133C159.851 234.707 159.699 234.416 159.54 234.259C159.392 234.098 159.212 234.054 158.999 234.127C158.786 234.199 158.549 234.373 158.286 234.647L158.268 234.654C158.221 234.67 158.175 234.652 158.132 234.601C158.088 234.55 158.079 234.507 158.107 234.471L160.049 232.619L160.114 232.577C160.138 232.569 160.173 232.577 160.221 232.6C160.264 232.612 160.292 232.635 160.304 232.671C160.333 232.753 160.408 232.992 160.529 233.386C160.65 233.78 160.802 234.244 160.984 234.776L162.123 238.11C162.244 238.465 162.363 238.715 162.478 238.86C162.594 239.006 162.741 239.088 162.919 239.106C163.093 239.113 163.339 239.061 163.658 238.952C163.694 238.94 163.724 238.97 163.748 239.041C163.772 239.112 163.767 239.153 163.731 239.165C163.459 239.258 163.238 239.327 163.069 239.372L162.105 239.681L161.153 240.026C160.992 240.094 160.769 240.177 160.485 240.274ZM158.873 230.684C158.637 230.764 158.425 230.764 158.239 230.682C158.052 230.601 157.919 230.442 157.838 230.205C157.757 229.969 157.766 229.761 157.863 229.583C157.961 229.404 158.128 229.275 158.364 229.194C158.601 229.113 158.806 229.115 158.981 229.201C159.155 229.287 159.283 229.448 159.363 229.684C159.444 229.921 159.442 230.126 159.356 230.301C159.271 230.475 159.109 230.603 158.873 230.684Z" fill="#0B2846"/>
<path d="M165.833 238.378C165.798 238.392 165.767 238.365 165.739 238.295C165.711 238.225 165.714 238.184 165.749 238.17C166.062 238.044 166.282 237.921 166.409 237.803C166.532 237.672 166.59 237.514 166.582 237.329C166.57 237.132 166.496 236.865 166.361 236.529L162.74 227.541C162.572 227.123 162.41 226.838 162.254 226.686C162.098 226.533 161.916 226.498 161.707 226.583C161.533 226.653 161.299 226.841 161.005 227.148L160.971 227.162C160.936 227.176 160.895 227.159 160.849 227.11C160.814 227.057 160.811 227.017 160.841 226.992L162.639 225.035C162.658 225.014 162.685 224.996 162.719 224.982C162.754 224.968 162.796 224.972 162.845 224.993C162.889 225.002 162.918 225.024 162.932 225.058L167.387 236.116C167.522 236.452 167.646 236.691 167.757 236.835C167.881 236.974 168.032 237.048 168.21 237.057C168.389 237.066 168.635 237.007 168.948 236.881C168.983 236.867 169.014 236.895 169.042 236.964C169.07 237.034 169.067 237.075 169.032 237.089C168.777 237.192 168.566 237.27 168.399 237.324L167.418 237.699L166.487 238.095C166.329 238.172 166.111 238.266 165.833 238.378Z" fill="#0B2846"/>
<path d="M171.248 236.12C171.225 236.13 171.198 236.102 171.166 236.034C171.135 235.966 171.13 235.926 171.153 235.916C171.459 235.773 171.672 235.639 171.793 235.514C171.919 235.372 171.974 235.208 171.957 235.023C171.939 234.838 171.851 234.576 171.693 234.237L170.21 231.061C170.019 230.653 169.837 230.38 169.662 230.241C169.498 230.097 169.314 230.072 169.11 230.167C168.906 230.263 168.689 230.461 168.457 230.762L168.44 230.77C168.395 230.791 168.347 230.779 168.298 230.733C168.249 230.687 168.236 230.644 168.26 230.606L169.992 228.556L170.052 228.507C170.075 228.497 170.111 228.5 170.161 228.519C170.205 228.525 170.235 228.546 170.251 228.58C170.288 228.659 170.388 228.888 170.551 229.267C170.715 229.646 170.915 230.09 171.153 230.6L172.644 233.792C172.802 234.132 172.947 234.368 173.078 234.5C173.208 234.632 173.363 234.698 173.542 234.697C173.715 234.685 173.955 234.607 174.261 234.465C174.295 234.449 174.328 234.475 174.359 234.543C174.391 234.611 174.39 234.653 174.356 234.669C174.096 234.79 173.883 234.882 173.72 234.945L172.795 235.356L171.885 235.801C171.732 235.887 171.52 235.993 171.248 236.12ZM168.615 226.758C168.388 226.864 168.178 226.886 167.984 226.825C167.79 226.764 167.64 226.62 167.534 226.394C167.429 226.167 167.415 225.96 167.492 225.772C167.57 225.584 167.722 225.437 167.949 225.332C168.175 225.226 168.38 225.206 168.562 225.273C168.745 225.339 168.889 225.485 168.995 225.712C169.101 225.938 169.12 226.143 169.054 226.325C168.987 226.508 168.841 226.652 168.615 226.758Z" fill="#0B2846"/>
<path d="M180.94 231.296C180.909 231.343 180.871 231.378 180.827 231.402C180.663 231.493 180.452 231.445 180.192 231.26C179.933 231.075 179.688 230.775 179.459 230.36L177.744 227.26C177.067 226.035 176.384 225.613 175.695 225.994C175.323 226.2 175.108 226.483 175.051 226.843C174.998 227.186 175.026 227.535 175.136 227.888C175.207 228.12 175.232 228.32 175.211 228.489C175.201 228.652 175.092 228.79 174.885 228.905C174.71 229.002 174.546 229.028 174.393 228.984C174.251 228.934 174.144 228.844 174.071 228.712C173.926 228.45 173.95 228.094 174.144 227.644C174.338 227.194 174.622 226.752 174.995 226.317C175.369 225.882 175.741 225.561 176.113 225.356C176.561 225.108 176.979 225.063 177.366 225.22C177.753 225.377 178.094 225.724 178.391 226.26L180.087 229.327C180.298 229.71 180.502 229.961 180.697 230.082C180.892 230.202 181.099 230.202 181.318 230.081C181.537 229.96 181.771 229.738 182.02 229.414L182.053 229.396C182.097 229.372 182.139 229.384 182.18 229.433C182.215 229.471 182.217 229.512 182.185 229.559L180.94 231.296ZM177.997 232.946C177.592 233.169 177.218 233.241 176.873 233.16C176.534 233.062 176.273 232.849 176.092 232.521C175.91 232.193 175.884 231.836 176.014 231.451C176.143 231.065 176.448 230.597 176.929 230.045L178.489 228.219L178.656 228.405L177.289 230.039C177.049 230.328 176.904 230.594 176.852 230.837C176.806 231.063 176.843 231.285 176.964 231.504C177.109 231.766 177.315 231.945 177.582 232.04C177.854 232.118 178.126 232.082 178.4 231.931C178.618 231.81 178.832 231.577 179.042 231.233L179.73 230.038L179.881 230.233L179.103 231.692C178.926 232.018 178.755 232.277 178.59 232.468C178.424 232.659 178.227 232.819 177.997 232.946Z" fill="#0B2846"/>
<path d="M144.948 51.3713C147.583 49.9659 150.85 50.9572 151.678 53.4421C152.921 54.1668 153.324 54.7543 153.645 56.2376C150.229 54.581 147.951 56.0305 145.88 60.7933C144.845 62.0357 143.913 68.7657 139.15 72.9072C137.067 74.5489 135.438 75.1832 131.695 75.4956C130.349 76.7381 129.417 77.2558 126.415 76.6346C126.001 77.3593 125.247 77.7438 124.241 78.0841C122.894 82.0549 122.017 83.485 120.203 84.3999C120.292 83.7482 120.376 83.2388 120.488 82.6863C119.73 85.5881 118.79 86.1442 116.993 87.4025C117.41 86.9486 117.794 86.0763 118.532 83.9165C117.58 86.3172 116.295 87.0265 114.508 87.9202C114.698 86.5887 115.424 85.2671 117.084 83.132C115.877 84.5961 114.943 85.6589 114.508 85.7459C113.473 85.953 113.576 85.8494 112.644 85.7459C113.134 85.052 113.88 84.227 114.979 83.1236C113.994 83.9465 113.122 84.3136 112.23 83.7787C113.033 83.17 113.937 82.4383 115.372 81.2376C114.189 82.1028 113.201 82.4101 112.023 81.6044C113.113 81.0803 113.601 80.8579 114.404 80.2584C113.907 79.2143 116.061 77.2558 122.273 73.2178C124.522 67.3398 126.725 65.556 131.281 62.9676C124.448 66.4878 127.036 68.0409 121.859 67.2126C121.859 66.6528 122.477 66.092 123.855 65.4372C121.604 66.2901 119.388 66.5303 116.475 65.2454C116.837 64.6943 117.708 64.3323 119.433 63.9129C117.319 64.2207 115.316 64.0237 112.023 63.1746C112.735 62.1306 113.816 61.8914 115.158 61.789C112.962 61.7749 110.986 61.3283 109.745 60.4826C110.54 59.828 111.948 59.7647 113.5 59.7776C111.175 59.6001 108.76 58.8836 107.26 57.1694C109.672 57.3616 111.385 57.47 112.726 57.512C109.634 57.3404 106.435 56.5373 105.293 54.3739L112.372 54.8082C106.294 54.2543 104.909 53.3989 103.947 50.9572C105.442 51.1648 106.57 51.5389 108.107 51.9994C105.232 50.9943 103.885 49.7294 103.429 47.851C105.293 47.3333 106.743 50.6465 117.511 52.8208C112.334 51.7755 103.119 48.9899 102.394 44.0201L108.736 47.7286C103.695 44.4685 102.375 42.3203 102.705 39.4645C103.915 40.2096 105.105 41.7198 106.613 43.4338C104.568 40.8961 103.312 38.09 103.947 35.7371C105.674 37.464 106.454 39.0205 107.316 40.5928C106.185 38.3693 105.735 36.0226 106.432 33.9769C108.291 36.8753 109.255 39.701 110.758 42.5692C109.311 39.7243 108.667 36.9569 109.435 35.3229C112.235 43.383 115.746 49.6029 128.15 54.5463C125.583 52.9173 125.034 51.5881 125.69 47.851C126.455 48.2673 126.95 48.7918 127.563 49.7419C126.401 47.7096 126.024 46.1756 126.104 43.5024C126.892 43.4989 127.341 43.7253 127.871 44.5409C127.112 43.109 126.863 41.3087 127.14 38.6361C128.482 39.4639 129.11 40.5682 130.142 42.9847C128.787 39.4961 128.559 37.5657 129.314 34.184C131.902 35.53 131.592 37.7043 132.731 39.8786C130.966 35.5238 130.994 33.4698 132.213 30.2496C133.418 32.1706 134.151 33.504 134.645 34.9862C133.812 31.1918 134.115 29.5382 135.423 27.8682C135.863 29.4551 136.905 31.1921 137.588 35.5721C137.123 31.1098 137.52 28.8374 139.254 26.5222C139.404 29.1182 139.792 31.0906 140.172 35.0595C140.141 31.4244 142.534 28.2169 144.016 27.6611C141.946 38.1185 141.248 44.5894 140.807 55.4093C142.481 53.7527 143.602 52.1996 144.948 51.3713Z" fill="#EFEFEF"/>
<path d="M136.872 57.6871C138.529 57.0659 139.446 56.7553 140.807 55.4093M126.415 76.6346C129.417 77.2558 130.349 76.7381 131.695 75.4956C135.438 75.1832 137.067 74.5489 139.15 72.9072C143.913 68.7657 144.845 62.0357 145.88 60.7933C147.951 56.0305 150.229 54.581 153.645 56.2376C153.324 54.7543 152.921 54.1668 151.678 53.4421C150.85 50.9572 147.583 49.9659 144.948 51.3713C143.602 52.1996 142.481 53.7527 140.807 55.4093M126.415 76.6346C125.99 76.4386 125.69 76.2204 125.172 75.8062M126.415 76.6346C126.001 77.3593 125.247 77.7438 124.241 78.0841C122.894 82.0549 122.017 83.485 120.203 84.3999C120.363 83.2292 120.508 82.5176 120.824 81.1902C119.995 85.4353 119.064 85.953 116.993 87.4025C117.484 86.8681 117.929 85.7534 118.96 82.6397C117.974 86.097 116.579 86.8848 114.508 87.9202C114.78 86.0137 116.151 84.1274 119.788 79.8442C117.342 82.7488 115.233 85.6009 114.508 85.7459C113.473 85.953 113.576 85.8494 112.644 85.7459C113.653 84.3161 115.75 82.3291 119.788 78.4982C116.268 81.3973 114.301 85.0211 112.23 83.7787C113.455 82.8509 114.911 81.6374 118.132 78.9124C115.429 81.1902 113.99 82.9504 112.023 81.6044C113.113 81.0803 113.601 80.8579 114.404 80.2584M116.682 78.7053C115.657 79.4665 115.113 79.9516 114.404 80.2584M114.404 80.2584C113.907 79.2143 116.061 77.2558 122.273 73.2178M122.273 73.2178C123.057 72.7051 123.649 72.4093 124.862 71.8718M122.273 73.2178C124.522 67.3398 126.725 65.556 131.281 62.9676C124.448 66.4878 127.036 68.0409 121.859 67.2126C121.859 66.4878 122.895 65.7613 125.276 64.8312C122.499 66.1235 119.995 66.7985 116.475 65.2454C116.977 64.4794 118.465 64.0787 121.859 63.3817C118.608 64.2776 116.517 64.3335 112.023 63.1746C113.576 60.8968 116.889 62.4499 120.824 60.8968C116.786 62.2428 112.023 62.0357 109.745 60.4826C111.505 59.0331 116.268 60.4826 118.96 59.2402C116.475 60.0685 110.159 60.4826 107.26 57.1694C114.155 57.7188 115.336 57.5836 118.442 57.1694C115.336 57.7907 107.26 58.1013 105.293 54.3739L122.17 55.4093C107.467 54.6845 105.293 54.3739 103.947 50.9572C107.674 51.4748 109.124 53.0279 120.306 54.3739C108.438 52.794 104.302 51.446 103.429 47.851C105.293 47.3333 106.743 50.6465 117.511 52.8208C112.334 51.7755 103.119 48.9899 102.394 44.0201L114.612 51.1642C104.681 45.7413 102.272 43.2123 102.705 39.4645C105.397 41.1211 107.985 46.5595 114.197 49.6112C109.124 47.119 102.662 40.4998 103.947 35.7371C107.985 39.7751 106.846 42.8812 113.68 47.4369C109.02 44.5812 104.879 38.5326 106.432 33.9769C109.952 39.4645 110.263 44.6919 117.096 50.4395C112.127 46.6086 107.878 38.636 109.435 35.3229C112.237 43.3884 115.75 49.6112 128.175 54.5562C130.63 55.9022 131.457 56.2289 134.801 58.2048C126.622 53.6491 124.655 53.7527 125.69 47.851C126.69 48.3955 127.229 49.125 128.175 50.7501C126.532 48.1663 126.012 46.5984 126.104 43.5024C127.037 43.4982 127.495 43.8168 128.175 45.0555C127.181 43.5403 126.829 41.6387 127.14 38.6361C128.482 39.4639 129.11 40.5682 130.142 42.9847C128.787 39.4961 128.559 37.5657 129.314 34.184C131.902 35.53 131.592 37.7043 132.731 39.8786C130.966 35.5238 130.994 33.4698 132.213 30.2496C133.993 33.0874 134.743 34.6428 135.216 37.2902C133.734 31.7947 133.877 29.8429 135.423 27.8682C135.94 29.7319 137.286 31.8026 137.908 38.1185C137.025 31.9012 137.218 29.2412 139.254 26.5222C139.419 29.3867 139.875 31.492 140.289 36.3583C139.564 32.2168 142.36 28.2824 144.016 27.6611C141.946 38.1185 141.248 44.5894 140.807 55.4093" stroke="black" stroke-width="0.292864"/>
<path d="M123.148 53.3497C124.408 54.2648 125.276 54.7883 126.726 54.7883" stroke="black" stroke-width="0.292864"/>
<path d="M136.517 60.1616C132.006 59.9648 129.634 58.1719 125.276 54.5808" stroke="black" stroke-width="0.292864"/>
<ellipse cx="147.951" cy="52.7172" rx="0.414152" ry="0.51769" fill="black"/>
<defs>
<linearGradient id="paint0_linear_104_701" x1="44.0407" y1="36.3335" x2="183.591" y2="183.791" gradientUnits="userSpaceOnUse">
<stop stop-color="#EC9E30"/>
<stop offset="1" stop-color="#FFAB34"/>
</linearGradient>
<linearGradient id="paint1_linear_104_701" x1="51.9479" y1="44.241" x2="184.469" y2="175.884" gradientUnits="userSpaceOnUse">
<stop stop-color="#0B2846"/>
<stop offset="1" stop-color="#0E335A"/>
</linearGradient>
<linearGradient id="paint2_linear_104_701" x1="31.1198" y1="115.188" x2="78.5284" y2="123.088" gradientUnits="userSpaceOnUse">
<stop stop-color="#EC9E30"/>
<stop offset="1" stop-color="#FFAB34"/>
</linearGradient>
<linearGradient id="paint3_linear_104_701" x1="224.88" y1="115.261" x2="177.472" y2="123.161" gradientUnits="userSpaceOnUse">
<stop stop-color="#EC9E30"/>
<stop offset="1" stop-color="#FFAB34"/>
</linearGradient>
<linearGradient id="paint4_linear_104_701" x1="74.8652" y1="218.056" x2="162.651" y2="246.537" gradientUnits="userSpaceOnUse">
<stop stop-color="#EC9E30"/>
<stop offset="1" stop-color="#FFAB34"/>
</linearGradient>
</defs>
</svg>
