<svg width="1720" height="1720" viewBox="0 0 1720 1720" fill="none" xmlns="http://www.w3.org/2000/svg">
<path d="M857.148 10.0002C670.093 174.78 539.368 222.04 262.134 229.391C310.852 587.917 293.101 861.179 303.686 937.424C333.224 1150.2 444.96 1319.7 858.81 1549.06C1261.03 1319.7 1385.68 1150.2 1422.25 937.424C1433.58 861.169 1403.96 587.928 1462.13 229.391C1169.08 229.726 1043.92 177.061 857.148 10.0002Z" fill="url(#paint0_linear_103_211)"/>
<path d="M859.28 71.4961C689.842 223.108 571.429 266.591 320.306 273.354C364.435 603.229 348.356 854.654 357.944 924.806C384.7 1120.58 485.913 1276.53 860.786 1487.56C1225.12 1276.53 1338.03 1120.58 1371.15 924.806C1381.42 854.645 1354.59 603.24 1407.29 273.354C1141.83 273.663 1028.46 225.206 859.28 71.4961Z" fill="url(#paint1_linear_103_211)" stroke="black"/>
<path d="M862.476 728.893V775.663C848.655 775.019 840.572 776.158 825.728 780.105C801.521 751.647 786.752 741.155 735.527 728.893C684.303 716.63 577.398 738.915 577.398 738.915C497.22 755.606 465.473 763.647 427.064 755.606C427.064 748.922 431.518 738.915 437.086 736.673C453.565 749.856 493.888 752.203 539.877 729.81C525.985 735.405 458.421 746.56 442.654 725.55C456.017 685.448 476.062 650.927 527.287 544.022C549.847 536.65 711.847 500.209 757.347 503.65C816.847 508.15 855.795 528.842 862.476 536.65C862.476 596.65 866.847 700.15 862.476 728.893Z" fill="#EFEFEF"/>
<path d="M862.476 775.663C862.476 775.663 862.476 748.922 862.476 728.893C866.847 700.15 862.476 596.65 862.476 536.65C855.795 528.842 816.847 508.15 757.347 503.65C711.847 500.209 549.847 536.65 527.287 544.022C476.062 650.927 456.017 685.448 442.654 725.55C459.358 747.809 534.198 733.966 541.763 728.88C494.993 752.265 453.79 750.036 437.086 736.673C431.518 738.915 427.064 748.922 427.064 755.606C465.473 763.647 497.22 755.606 577.398 738.915C577.398 738.915 684.303 716.63 735.527 728.893C786.752 741.155 801.521 751.647 825.728 780.105C840.572 776.158 848.655 775.019 862.476 775.663Z" stroke="#0B2846"/>
<path d="M893.838 780.151L884.937 776.809C919.9 738.259 947.21 725.502 1002.91 714.001C1004.81 713.608 1006.2 711.931 1006.2 709.988C934.49 713.329 878.331 776.809 878.331 776.809C878.331 776.809 868.554 775.628 862.347 775.696L862.347 724.15L862.347 693.283L862.347 536.173C912.847 506.15 940.847 501.15 968.347 497.65C995.847 494.15 1013.06 488.988 1080.74 505.15C1114.24 513.15 1150.35 530.65 1178.64 544.048L1195.33 548.503L1234.27 638.712L1276.55 725.58C1251.83 742.323 1229.04 742.31 1181.98 732.262C1200.64 740.513 1212.74 743.925 1234.27 745.626C1254.91 747.135 1265.49 745.681 1282.11 737.83L1294.35 756.763C1258.95 757.765 1238.98 756.687 1203.12 751.194C1203.12 751.194 1132.57 732.914 1086.3 728.921C1047.35 725.558 1031.93 721.482 986.177 728.921C940.42 736.359 921.217 750.56 893.838 780.151Z" fill="#EFEFEF"/>
<path d="M862.347 775.696C868.554 775.628 878.331 776.809 878.331 776.809C878.331 776.809 934.49 713.329 1006.2 709.988V709.988C1006.2 711.931 1004.81 713.608 1002.91 714.001C947.21 725.502 919.9 738.259 884.937 776.809L893.838 780.151C921.217 750.56 940.42 736.359 986.177 728.921C1031.93 721.482 1047.35 725.558 1086.3 728.921C1132.57 732.914 1203.12 751.194 1203.12 751.194C1238.98 756.687 1258.95 757.765 1294.35 756.763L1282.11 737.83C1265.49 745.681 1254.91 747.135 1234.27 745.626C1212.74 743.925 1200.64 740.513 1181.98 732.262C1229.04 742.31 1251.83 742.323 1276.55 725.58L1234.27 638.712L1195.33 548.503L1178.64 544.048M862.347 775.696C862.347 775.696 901.626 703.306 965.04 686.6C1028.45 669.895 1067.39 678.359 1080.74 681.032C1094.09 683.705 1148.61 697.701 1177.53 703.306C1206.46 708.91 1225.37 702.192 1234.27 693.283C1243.17 684.373 1217.28 654.888 1178.64 544.048M862.347 775.696L862.347 724.15C862.347 728.921 862.347 696.65 862.347 693.283C862.347 660.15 862.347 543.65 862.347 536.173C912.847 506.15 940.847 501.15 968.347 497.65C995.847 494.15 1013.06 488.988 1080.74 505.15C1114.24 513.15 1150.35 530.65 1178.64 544.048" stroke="#0B2846"/>
<path d="M822.386 781.216L814.591 784.559C814.591 784.559 778.532 752.366 748.89 747.808C719.936 743.356 695.761 747.334 662.03 751.149C591.023 759.18 544.36 776.481 472.72 783.443C447.616 785.883 407.019 785.67 407.019 785.67L421.496 760.058C443.113 766.674 458.453 767.028 479.402 763.399C479.402 763.399 607.465 742.247 654.235 735.559C680.961 731.737 717.709 732.677 742.208 735.559C766.707 738.441 794.014 753.525 822.386 781.216Z" fill="#EFEFEF" stroke="#0B2846"/>
<path d="M895.882 781.516L902.564 784.558C902.564 784.558 939.736 752.667 969.379 748.109C998.332 743.657 1022.51 747.635 1056.24 751.449C1127.25 759.48 1173.91 776.781 1245.55 783.743C1270.65 786.183 1311.25 785.971 1311.25 785.971L1296.77 760.358C1275.16 766.975 1259.82 767.329 1238.87 763.699C1238.87 763.699 1110.8 742.547 1064.03 735.859C1037.31 732.038 1000.56 732.977 976.061 735.859C951.562 738.742 924.255 753.826 895.882 781.516Z" fill="#EFEFEF" stroke="#0B2846"/>
<path d="M801.347 793.444L793.607 800.15C772.191 786.806 761.541 777.79 723.946 776.672C686.351 775.554 624.43 780.026 624.43 780.026L550.347 782.262V776.672C576.147 772.946 628.19 765.492 629.959 765.492C631.728 765.492 709.571 758.785 739.426 764.375C769.281 769.965 783.003 775.604 801.347 793.444Z" fill="#EC9E30"/>
<path d="M914.813 793.466L923.722 800.135C945.289 786.843 956.016 777.864 993.878 776.75C1031.74 775.637 1094.1 780.091 1094.1 780.091L1168.71 782.318V776.75C1142.73 773.038 1090.31 765.614 1088.53 765.614C1086.75 765.614 1008.35 758.933 978.288 764.502C948.221 770.07 933.287 775.697 914.813 793.466Z" fill="#EC9E30"/>
<path d="M860.248 783.444C833.354 783.096 817.199 790.46 796.774 810.17L792.319 804.602C804.847 792.65 814.847 779.15 860.248 776.15C892.847 779.15 891.244 776.763 926.347 804.602L921.495 810.17C900.419 791.165 886.342 783.781 860.248 783.444Z" fill="#EFEFEF"/>
<path d="M398.11 745.582H414.814L383.633 800.147C529.902 793.424 709.914 786.784 733.299 787.898C756.685 789.011 794.546 801.261 795.66 809.056C797.55 822.285 802.342 851.372 860.248 851.372C914.814 851.372 920.382 827.987 922.609 810.17C923.583 802.374 951.562 789.011 972.72 787.898C993.878 786.784 1165.53 791.264 1333.52 799.034L1300.11 745.582H1317.93L1359.13 814.624C1155.9 809.091 956.016 799.034 941.54 821.305C932.914 834.575 914.814 864.735 860.248 864.735C795.65 864.735 786.751 831.328 773.388 817.965C764.48 803.488 586.963 807.758 359.134 815.737L398.11 745.582Z" fill="#EC9E30"/>
<path d="M1031.74 686.57C976.061 686.571 934.327 699.694 893.656 745.59C937.227 711.163 974.052 698.664 1031.74 697.706C1089.43 696.749 1119.71 712.176 1153.12 717.744C1186.53 723.312 1203.23 728.88 1225.5 728.88C1247.78 728.88 1252.23 724.419 1255.57 717.744C1258.91 711.069 1255.57 702.161 1255.57 702.161C1255.57 702.161 1236.64 723.319 1182.07 714.41C1127.51 705.501 1087.42 686.57 1031.74 686.57Z" fill="#0B2846" stroke="#0B2846"/>
<path d="M840.203 776.764L833.522 777.877C797.725 738.679 770.161 725.445 712.141 712.176C757.798 712.176 812.364 735.561 840.203 776.764Z" fill="#0B2846" stroke="#0B2846"/>
<path d="M782.296 707.722C820.158 725.539 849.111 767.855 849.111 767.855C849.111 767.855 816.505 732.221 782.296 715.517C749.263 699.388 726.474 699.949 689.868 696.586C617.485 689.935 540.648 736.675 477.173 726.653C464.925 723.312 451.562 722.198 468.265 689.904C515.036 581.886 526.171 568.523 526.171 568.523C526.171 568.523 489.423 654.27 472.719 696.586C467.004 711.062 492.764 718.858 521.717 714.403C590.76 705.494 635.303 683.223 694.322 684.336C729.565 688.065 751.261 690.611 782.296 707.722Z" fill="#0B2846" stroke="#0B2846"/>
<path d="M547.134 568.514C547.134 568.514 589.634 571.327 644.634 550.5C700.634 533 783.397 524.491 832.802 568.327" stroke="black" stroke-width="2"/>
<path d="M1169.94 568.537C1169.94 568.537 1127.44 571.35 1072.44 550.523C1016.44 533.023 933.678 524.514 884.273 568.35" stroke="black" stroke-width="2"/>
<path d="M533.134 606.265C533.134 606.265 577.134 609.587 635.159 587.525C694.236 568.98 781.537 559.929 833.62 606.265" stroke="black" stroke-width="2"/>
<path d="M1184.94 608.101C1184.94 608.101 1140.94 611.424 1082.92 589.361C1023.84 570.816 936.538 561.765 884.454 608.101" stroke="black" stroke-width="2"/>
<path d="M517.124 649.204C517.124 649.204 563.873 652.185 624.468 628.656C686.15 608.846 777.241 598.995 831.425 647.867" stroke="black" stroke-width="2"/>
<path d="M1198.95 642.01C1198.95 642.01 1152.2 644.991 1091.61 621.462C1029.93 601.652 938.833 591.801 884.65 640.673" stroke="black" stroke-width="2"/>
<path d="M502.845 683.355C502.845 683.355 550.739 686.825 612.465 664.994C675.351 646.752 768.473 638.461 824.571 686.133" stroke="black" stroke-width="2"/>
<path d="M1206.23 675.734C1206.23 675.734 1158.34 679.204 1096.61 657.373C1033.72 639.131 940.602 630.84 884.504 678.512" stroke="black" stroke-width="2"/>
<path d="M1000.28 1350.48C967.575 1368.49 933.113 1378.3 865.481 1388.49L863.713 1383.63C848.383 1384.71 841.316 1384.95 829.129 1385.37L828.356 1385.4L825.704 1377.89C803.413 1384.93 789.121 1385.63 759.851 1381.42C757.577 1381.09 753.455 1380.48 751.012 1380.1C699.145 1373.63 679.916 1365.38 667.039 1340.76C657.33 1322.2 661.735 1284.19 678.972 1202.87C646.266 1191.82 640.521 1150.72 666.155 1116.24C703.606 1077.41 712.447 1068.71 718.749 1051.72C723.184 1023.24 725.664 1007.37 728.914 997.795C735.038 982.481 742.838 974.014 753.664 965.09C762.945 958.902 769.575 955.809 779.74 954.041C793.41 952.716 801.215 952.664 811.119 954.925C824.118 959.667 829.409 962.527 838.079 973.487C846.636 975.831 851.111 978.318 856.2 982.768C864.745 992.533 867.578 997.44 867.691 1009.29C868.194 1018.03 866.542 1024 861.503 1035.8C864.044 1042.84 865.007 1046.17 865.923 1052.6C889.664 1041.93 899.992 1042.07 910.562 1054.81C913.63 1052.1 915.917 1051.3 920.727 1050.83C922.14 1045.72 929.124 1039.34 929.124 1039.34C929.124 1039.34 929.291 1034.75 929.124 1031.83C924.216 1033.68 919.401 1035.8 914.539 1031.83C896.419 1014.15 892.071 1009.16 888.463 994.701C886.717 985.051 885.512 978.303 884.486 968.626C884.349 967.338 884.216 966.516 884.085 965.09C883.921 963.306 883.76 961.402 883.602 959.344C881.898 953.547 881.649 949.492 880.95 942.55C865.923 934.08 860.965 918.198 861.062 909.402C861.911 902.78 864.782 896.981 875.204 882C879.647 890.553 885.339 893.874 897.745 893.933C906.301 893.563 911.117 892.816 921.611 888.188C934.961 884.286 941.822 883.284 950.781 887.746C957.16 890.99 960.84 893.092 964.482 903.657C977.356 898.106 983.138 901.313 990.999 911.612C994 919.071 996.103 929.945 992.767 946.527C982.616 984.964 978.967 991.182 972.879 999.121C974.32 1008.2 976.297 1014.35 979.593 1022.99C979.591 1022.97 979.591 1022.97 979.594 1022.99C984.269 1022.89 986.45 1021.76 989.232 1022.99L1003.05 1043.74C1031.12 1065.03 1049.34 1083.98 1060.39 1101.22C1071.44 1118.45 1075.86 1154.25 1058.62 1238.22C1036.96 1316.89 1019.29 1340.02 1000.28 1350.48Z" fill="#EFEFEF"/>
<path d="M1003.05 1043.74C1031.12 1065.03 1049.34 1083.98 1060.39 1101.22C1071.44 1118.45 1075.86 1154.25 1058.62 1238.22C1036.96 1316.89 1019.29 1340.02 1000.28 1350.48C967.575 1368.49 933.113 1378.3 865.481 1388.49L863.713 1383.63M1003.05 1043.74L989.232 1022.99M1003.05 1043.74C981.467 1066.49 967.824 1074.26 940.173 1077.35M989.232 1022.99C986.45 1021.76 984.268 1022.89 979.593 1022.99M989.232 1022.99C988.343 1027.64 985.669 1029.38 982.602 1031.83M979.593 1022.99C976.296 1014.35 974.32 1008.2 972.879 999.121M979.593 1022.99C979.547 1022.69 980.637 1029.12 982.602 1031.83M972.879 999.121C978.967 991.182 982.616 984.964 992.767 946.527C996.103 929.945 994 919.071 990.999 911.612C983.138 901.313 977.356 898.106 964.481 903.657C960.84 893.092 957.16 890.99 950.781 887.746C941.822 883.284 934.961 884.286 921.611 888.188C911.117 892.816 906.301 893.563 897.745 893.933C885.339 893.874 879.647 890.553 875.204 882C864.782 896.981 861.911 902.78 861.062 909.402C860.965 918.198 865.923 934.08 880.95 942.55C881.649 949.492 881.898 953.547 883.602 959.344M972.879 999.121C971.553 994.701 970.773 991.608 970.773 986.304M883.602 959.344C885.812 953.599 885.812 949.621 886.696 942.992C900.838 942.992 908.352 941.34 918.075 937.246C943.267 926.639 941.499 919.703 955.642 907.192C944.593 918.241 937.522 923.987 940.615 940.34C944.151 949.179 948.571 953.599 956.968 959.786C958.736 965.09 958.294 977.023 963.598 971.277C967.133 964.648 968.017 954.041 977.74 954.925C982.602 955.367 986.58 963.764 982.602 973.487C980.392 978.889 977.402 984.536 970.773 986.304M883.602 959.344C883.76 961.402 883.921 963.306 884.085 965.09C884.216 966.516 884.349 967.338 884.486 968.626C885.512 978.303 886.717 985.051 888.463 994.701C892.071 1009.16 896.419 1014.15 914.539 1031.83C919.401 1035.8 924.216 1033.68 929.124 1031.83M929.124 1031.83C929.291 1034.75 929.124 1039.34 929.124 1039.34M929.124 1031.83C954.516 1021.54 963.17 1012.81 967.575 986.304H970.773M929.124 1039.34C929.124 1039.34 922.14 1045.72 920.727 1050.83M929.124 1039.34C929.46 1046.14 929.95 1049.38 931.015 1054.81M920.727 1050.83C915.917 1051.3 913.63 1052.1 910.562 1054.81C899.992 1042.07 889.664 1041.93 865.923 1052.6M920.727 1050.83C925.839 1051.68 928.699 1052.95 931.015 1054.81M865.923 1052.6C865.007 1046.17 864.044 1042.84 861.503 1035.8C866.542 1024 868.194 1018.03 867.691 1009.29C867.578 997.44 864.745 992.533 856.2 982.768C851.111 978.318 846.636 975.831 838.079 973.487C829.409 962.527 824.118 959.667 811.119 954.925C801.215 952.664 793.41 952.716 779.74 954.041C769.575 955.809 762.945 958.902 753.664 965.09C742.838 974.014 735.038 982.481 728.914 997.795C725.664 1007.37 723.184 1023.24 718.749 1051.72C712.447 1068.71 703.606 1077.41 666.155 1116.24C640.521 1150.72 646.266 1191.82 678.972 1202.87M865.923 1052.6C844.709 1063.65 833.66 1077.79 837.637 1101.22C838.386 1104.85 839.038 1106.62 840.731 1109.17C840.078 1106.62 840.042 1105.34 840.731 1103.43C842.94 1108.3 844.784 1110.14 848.245 1113.15C845.719 1109.79 844.534 1107.82 844.709 1103.43C847.33 1103.59 849.681 1103.42 851.78 1102.96M678.972 1202.87C661.735 1284.19 657.33 1322.2 667.039 1340.76C679.916 1365.38 699.145 1373.63 751.012 1380.1C753.455 1380.48 757.577 1381.09 759.851 1381.42M678.972 1202.87C693.999 1153.37 704.549 1153.69 706.816 1150.27C720.075 1141.43 727.146 1140.11 737.753 1135.69M825.704 1377.89L828.356 1385.4C841.023 1384.96 848.062 1384.73 863.713 1383.63M825.704 1377.89C819.358 1359.64 819.457 1350.02 820.401 1330.15M825.704 1377.89C803.413 1384.93 789.121 1385.63 759.851 1381.42M863.713 1383.63C865.652 1359.92 860.178 1317.34 860.178 1317.34M860.178 1317.34L820.401 1330.15M860.178 1317.34C898.517 1305.05 918.517 1296.12 953.874 1283.31M860.178 1317.34C883.918 1307.96 897.167 1301.12 919.401 1285.51M860.178 1317.34C860.178 1317.34 857.394 1318.26 853.106 1319.67M820.401 1330.15C814.618 1327.46 811.682 1325.93 805.374 1324.85C799.844 1324.44 795.09 1324.14 790.789 1323.86M820.401 1330.15C830.714 1326.99 844.76 1322.41 853.106 1319.67M759.851 1381.42C757.642 1380.1 756.758 1375.68 761.177 1374.79C767.807 1373.47 780.182 1372.58 790.789 1368.6C773.994 1373.47 747.034 1374.79 747.034 1374.79C742.173 1375.68 739.079 1368.16 743.941 1366.84C761.619 1365.51 769.575 1365.51 788.137 1361.97C768.691 1365.68 745.43 1365.07 739.963 1365.07C736.427 1365.07 735.543 1358.44 739.963 1357.56C744.383 1356.23 771.784 1357.56 788.137 1352.25C768.249 1355.35 759.432 1355.79 739.963 1355.79C736.869 1355.79 733.333 1348.27 741.289 1347.39C759.992 1345.31 785.485 1340.32 789.463 1337.67C779.273 1335.29 773.548 1333.58 765.597 1329.27C761.619 1327.5 761.177 1320.56 765.597 1321.31C774.081 1322.76 781.341 1323.26 790.789 1323.86M953.874 1283.31C969.922 1279.13 971.383 1277.21 987.022 1289.93M953.874 1283.31C960.532 1267.16 966.379 1261.08 983.044 1259M953.874 1283.31C954.25 1280.05 955.656 1274.1 957.852 1267.84M975.089 1208.17C979.704 1183.8 993.651 1133.48 1005.58 1119.34C993.651 1133.48 979.692 1183.86 975.089 1208.17ZM975.089 1208.17C970.227 1186.51 963.374 1170.01 947.245 1150.27M975.089 1208.17C974.044 1218.17 971.393 1228.47 968.299 1238.22M947.245 1150.27C944.165 1146.27 941.499 1142.76 936.638 1138.34L933.102 1140.99M947.245 1150.27C936.911 1158.96 923.607 1164.82 895.093 1175.91C895.737 1171.41 896.078 1168.71 895.248 1161.32M933.102 1140.99C931.356 1136.51 930.699 1133.57 930.008 1129.06M933.102 1140.99C921.76 1147.82 905.7 1160 905.7 1160C905.7 1160 904.149 1158.49 903.932 1156.36M930.008 1129.06C934.245 1126.25 936.511 1123.77 940.173 1116.24M930.008 1129.06C929.988 1126.77 929.781 1125.5 929.124 1123.31M940.173 1116.24C942.38 1111.47 942.722 1109.24 940.173 1102.1M940.173 1116.24C938.249 1120.53 933.102 1124.2 929.124 1123.31M940.173 1102.1C940.952 1093.17 941.695 1087.42 940.173 1077.35M940.173 1102.1C935.754 1096.35 928.24 1098.56 926.472 1107.84C925.147 1112.26 922.937 1111.82 922.053 1107.84C921.611 1105.86 920.861 1104.05 920.285 1098.56C909.408 1092.51 907.202 1088.87 906.584 1083.09C903.932 1091.58 869.973 1099.56 880.95 1077.35C871.233 1092 866.671 1099.71 851.78 1102.96M940.173 1077.35C940.268 1071.9 939.074 1067.84 935.312 1059.23M982.602 1031.83C969.041 1045.93 960.072 1053.58 935.312 1059.23M935.312 1059.23C933.797 1057.48 932.521 1056.02 931.015 1054.81M851.78 1102.96C851.78 1109.61 853.99 1114.03 860.178 1126.85C860.05 1137.87 861.945 1143.64 867.691 1148.51M867.691 1148.51C878.644 1156.57 884.044 1159.11 895.093 1160M867.691 1148.51V1156.28M895.093 1160C898.033 1159.36 901.017 1158.08 903.932 1156.36M895.093 1160C895.149 1160.46 895.201 1160.9 895.248 1161.32M929.124 1123.31C929.124 1131.29 917.232 1148.48 903.932 1156.36M737.753 1135.69C736.427 1158.67 743.499 1173.26 750.128 1185.19C739.521 1213.92 743.941 1230.71 756.758 1236.01M737.753 1135.69C746.594 1115.55 753.664 1106.52 773.994 1099.01M756.758 1236.01C745.267 1262.09 740.059 1277.77 736.427 1303.19M756.758 1236.01C760.351 1228.02 762.503 1223.2 770.459 1213.92M736.427 1303.19C735.89 1252.51 737.105 1227.23 718.307 1177.68M736.427 1303.19C727.759 1294.67 722.666 1292.28 711.235 1291.7M736.427 1303.19L739.963 1308.94M739.963 1308.94C721.295 1302.31 713.06 1304.26 697.534 1317.34M739.963 1308.94C756.316 1313.36 769.943 1316.06 790.789 1323.86M770.459 1213.92C773.11 1209.05 774.847 1206.07 776.646 1200.22C780.48 1201.5 782.037 1203.38 784.16 1204.19M770.459 1213.92C781.309 1218.03 789.724 1221.64 797.419 1224.78M784.16 1204.19C787.849 1199.23 787.253 1189.17 784.16 1189.61M784.16 1204.19C798.286 1209.91 805.021 1213.34 815.981 1219.66M784.16 1189.61C777.972 1191.38 772.226 1191.38 767.807 1186.96C762.945 1182.09 762.503 1171.05 770.459 1171.05C777.088 1171.05 780.624 1181.65 785.043 1181.65C785.485 1177.23 781.95 1171.05 781.508 1163.09C803.164 1144.97 813.329 1118.45 808.468 1109.17C812.445 1119.78 825.704 1118.89 833.66 1136.57M784.16 1189.61V1186.96C791.697 1191.94 795.918 1194.82 803.606 1197.56C809.986 1199.11 815.735 1199.16 820.401 1198.6M833.66 1136.57C836.508 1144.53 837.195 1150.72 838.521 1156.46C847.803 1165.74 841.173 1182.09 841.173 1182.09C841.173 1182.09 840.483 1183.38 839.399 1185.19M833.66 1136.57C835.409 1137.28 836.709 1137.42 837.637 1137.05M815.981 1219.66L819.075 1217.89C819.879 1212.27 820.208 1208.54 820.333 1204.19M815.981 1219.66C819.55 1225.43 821.541 1228.66 824.82 1234.25C814.768 1231.66 806.607 1228.55 797.419 1224.78M815.981 1219.66C818.78 1223.93 826.146 1232.92 826.146 1232.92C826.146 1232.92 830.566 1222.31 828.356 1204.19M820.401 1198.6C824.659 1198.1 828.015 1197.08 830.124 1196.24C833.117 1195.04 837.125 1188.98 839.399 1185.19M820.401 1198.6C820.399 1200.66 820.382 1202.48 820.333 1204.19M839.399 1185.19C847.279 1193.29 848.837 1201.98 847.361 1209.94M847.361 1209.94C847.153 1211.06 847.717 1208.69 847.361 1209.94ZM847.361 1209.94C854.432 1200.22 861.955 1191.12 874.321 1177.68M847.361 1209.94C841.332 1206.29 834.86 1204.64 828.356 1204.19M847.361 1209.94C854.248 1215.19 858.13 1220.3 867.249 1229.39M820.333 1204.19C824.111 1203.91 825.521 1204 828.356 1204.19M837.637 1137.05C840.626 1135.86 839.76 1129.31 837.637 1118.89C835.287 1113.15 828.356 1106.28 824.378 1105.19C819.517 1103.87 815.788 1103.93 808.468 1105.19C803.765 1098.99 798.302 1096.35 784.16 1096.8C780.742 1097.28 776.841 1098.31 773.994 1099.01M837.637 1137.05C848.19 1140.1 853.324 1142.13 860.178 1146.74C862.887 1149.29 865.481 1152.58 867.691 1156.28M874.321 1177.68C874.321 1170.61 871.61 1162.82 867.691 1156.28M874.321 1177.68C883.27 1166.88 887.586 1164.81 895.248 1161.32M919.401 1285.51C918.69 1277.36 917.436 1274.1 911.888 1265.63M919.401 1285.51C921.196 1284.61 922.111 1283.93 923.379 1281.98M923.379 1281.98C921.904 1272.38 919.596 1269.94 913.655 1262.53M923.379 1281.98C926.863 1279.83 928.297 1278.77 931.334 1274.91M931.334 1274.91C940.389 1274.5 947.113 1272.8 957.852 1267.84M931.334 1274.91C931.223 1265.58 928.523 1261.66 921.169 1255.9M957.852 1267.84C959.984 1261.76 962.693 1254.68 965.347 1247.06C966.35 1244.19 967.345 1241.23 968.299 1238.22M921.169 1255.9C929.087 1244.09 935.564 1239.29 948.571 1232.04C952.106 1230.71 954.758 1232.04 952.548 1234.69C947.687 1238.67 942.383 1241.76 941.499 1243.97C942.825 1244.85 953.874 1237.34 960.504 1234.69C966.691 1231.6 968.459 1235.13 965.365 1237.34L949.897 1249.27C956.526 1245.74 960.946 1242.64 968.299 1238.22M921.169 1255.9C915.486 1259.02 910.674 1261.36 906.584 1263.12M853.106 1319.67C843.555 1320.22 833.748 1319.24 827.914 1316.01C822.081 1312.78 817.749 1308.06 806.258 1297.45M806.258 1297.45C841.173 1293.91 877.414 1279.77 888.905 1267.84M806.258 1297.45C805.913 1296.69 806.144 1296.84 805.816 1296.12M888.905 1267.84C888.905 1267.84 894.604 1262.15 899.955 1255.9C902.823 1258.49 904.246 1260.09 906.584 1263.12M888.905 1267.84C888.905 1267.84 894.452 1268.36 906.584 1263.12M849.128 1249.27C854.874 1249.27 857.287 1249.72 861.945 1253.69M849.128 1249.27C851.999 1245.29 856.693 1240.94 867.249 1229.39M849.128 1249.27C840.751 1252.58 833.804 1255.56 826.146 1258.92M876.088 1217.45C896.861 1187.4 899.955 1184.3 907.91 1177.68M876.088 1217.45C872.922 1202.12 875.646 1199.77 883.16 1182.09M876.088 1217.45C873.339 1221.43 870.343 1224.52 867.249 1229.39M798.859 1274.47C798.783 1273.35 798.744 1272.17 798.744 1270.93C810.042 1266.06 818.452 1262.29 826.146 1258.92M798.859 1274.47C791.352 1272.31 794.135 1272.89 785.927 1270.93M798.859 1274.47C799.404 1282.54 802.414 1288.71 805.816 1296.12M785.927 1270.93C778.856 1266.51 772.464 1260.07 769.133 1253.69M785.927 1270.93L770.017 1266.51C766.039 1265.63 766.039 1268.28 767.365 1270.93C771.784 1274.47 774.709 1274.94 780.182 1276.23C769.767 1277.59 764.128 1278.02 754.548 1278C750.128 1278.89 751.454 1282.42 754.548 1283.75M754.548 1283.75L775.32 1285.51M754.548 1283.75C750.57 1285.51 751.012 1288.61 753.664 1289.93L756.316 1290.82M777.088 1292.14L756.316 1290.82M756.316 1290.82C754.106 1290.82 752.78 1296.12 758.526 1297.45L768.691 1298.77M778.856 1298.33L768.691 1298.77M768.691 1298.77C763.387 1299.66 765.597 1303.64 768.691 1304.08C784.601 1304.08 792.115 1302.31 805.816 1296.12M826.146 1258.92C816.495 1243.71 809.715 1236.82 797.419 1224.78M773.994 1099.01C774.97 1092.89 774.894 1088.24 774.783 1080M774.783 1080C781.928 1091.93 808.672 1103.43 813.771 1100.77C835.87 1089.28 844.267 1072.49 844.709 1058.79C846.268 1054.89 849.204 1048.92 849.57 1044.54C849.619 1043.95 849.623 1043.4 849.57 1042.88C849.581 1042.43 849.59 1041.99 849.599 1041.55C849.969 1023.06 848.976 1015.06 842.499 997.353M774.783 1080C771.343 1074.26 769.575 1071.16 768.249 1061C763.387 1061.88 759.259 1060.82 755.432 1054.81C752.338 1049.95 750.57 1047.74 752.338 1038.9C754.99 1033.59 760.293 1031.83 763.829 1035.36C766.481 1038.01 766.481 1040.67 769.575 1045.09C773.911 1048.94 775.769 1049.44 776.646 1043.32C777.088 1040.23 777.53 1038.01 778.414 1033.59C798.744 1033.15 834.544 1015.92 842.499 997.353M842.499 997.353C843.992 993.447 844.454 990.34 844.709 986.304" stroke="black" stroke-width="3"/>
<path d="M806.7 1072.49C814.925 1076.52 819.303 1077.78 826.588 1077.79C826.146 1080 826.146 1081.77 823.053 1083.98C818.191 1087.07 813.771 1085.75 810.236 1082.21C807.142 1079.12 807.142 1076.46 806.7 1072.49Z" fill="#EFEFEF" stroke="black" stroke-width="3"/>
<path d="M952.99 1254.58C953.525 1254.81 965.05 1247.62 964.923 1247.06" stroke="black" stroke-width="3" stroke-linecap="round"/>
<path d="M953.432 1262.09C954.174 1262.32 960.76 1258.72 960.946 1258.11" stroke="black" stroke-width="3" stroke-linecap="round"/>
<path d="M899.954 1255.02C903.49 1251.48 921.611 1232.92 937.079 1212.59" stroke="black" stroke-width="3" stroke-linecap="round"/>
<path d="M844.267 1251.04C845.417 1243.18 844.97 1238.21 844.267 1229.39" stroke="black" stroke-width="3"/>
<path d="M831.45 1043.85C827.472 1047.83 827.914 1058.87 831.008 1061.97C833.66 1065.06 831.45 1067.27 829.24 1068.16C827.03 1069.04 823.936 1069.48 821.285 1067.71" stroke="black" stroke-width="3" stroke-linecap="round"/>
<path d="M821.285 1152.48C820.843 1166.63 831.892 1167.07 828.798 1170.6C827.03 1171.93 824.766 1172.83 823.494 1172.37" stroke="black" stroke-width="3" stroke-linecap="round"/>
<path d="M877.856 1115.36C886.112 1126.85 874.762 1129.06 880.95 1132.15C883.16 1133.26 887.222 1132.36 888.021 1131.27" stroke="black" stroke-width="3" stroke-linecap="round"/>
<path d="M801.838 1150.27C806.258 1147.18 809.234 1151.71 805.374 1154.25C800.351 1156.56 797.358 1158.48 791.823 1162.56C794.012 1158.59 794.767 1156.9 801.838 1150.27Z" fill="black"/>
<path d="M791.673 1162.65L791.823 1162.56M791.823 1162.56C797.358 1158.48 800.351 1156.56 805.374 1154.25C809.234 1151.71 806.258 1147.18 801.838 1150.27C794.767 1156.9 794.012 1158.59 791.823 1162.56Z" stroke="black"/>
<path d="M863.271 1106.96C867.608 1105.16 871.227 1108.73 865.481 1110.5C863.271 1111.82 861.061 1113.59 856.642 1115.36C857.084 1113.15 859.294 1109.61 863.271 1106.96Z" fill="black" stroke="black"/>
<path d="M889.877 1098.96C884.561 1099.88 885.349 1104.79 889.877 1103.87C895.093 1102.1 899.783 1102.22 906.584 1101.22C902.234 1099.94 899.566 1098.67 889.877 1098.96Z" fill="black" stroke="black"/>
<path d="M796.535 1171.93C802.273 1169.95 803.741 1168.34 805.816 1167.51C808.026 1166.63 809.794 1167.07 812.003 1167.51" stroke="black" stroke-width="3" stroke-linecap="round"/>
<path d="M862.231 1126.45C867.276 1124.82 868.644 1123.3 870.476 1122.6C872.428 1121.85 873.908 1122.39 875.767 1122.97" stroke="black" stroke-width="3" stroke-linecap="round"/>
<path d="M836.686 1155.41C833.048 1156.56 831.703 1156.3 830.345 1156.66C828.898 1157.04 828.171 1157.93 827.221 1158.98" stroke="black" stroke-width="3" stroke-linecap="round"/>
<path d="M902.962 1113.66C898.333 1115.13 896.621 1114.79 894.892 1115.25C893.051 1115.73 892.126 1116.86 890.916 1118.2" stroke="black" stroke-width="3" stroke-linecap="round"/>
<path d="M929.124 977.906C926.031 980.116 924.679 980.876 921.611 976.58C920.664 975.255 927.357 973.928 939.732 973.928C935.754 975.697 932.66 976.139 929.124 977.906Z" fill="black" stroke="black" stroke-width="2"/>
<path d="M898.443 981.913C901.364 983.108 902.562 983.44 903.008 978.619C903.146 977.131 898.133 977.743 889.789 981.147C893.139 981.69 895.392 981.248 898.443 981.913Z" fill="black" stroke="black" stroke-width="2"/>
<path d="M814.213 1034.04C806.418 1033.19 802.28 1034.04 792.999 1036.25C800.512 1030.5 809.351 1026.97 818.191 1030.06C820.842 1031.38 820.842 1035.36 814.213 1034.04Z" fill="black" stroke="black"/>
<path d="M804.932 1050.83C801.838 1049.03 796.977 1046.85 796.977 1046.41C803.606 1049.06 807.584 1048.62 812.445 1049.51C815.539 1050.83 815.097 1055.25 809.352 1053.04C808.091 1052.68 806.671 1051.84 804.932 1050.83Z" fill="black" stroke="black" stroke-width="2"/>
<path d="M838.374 1058.68C840.817 1058.63 844.312 1059.01 844.543 1058.71C839.941 1057.99 838.281 1055.49 835.422 1054.95C833.228 1054.68 831.133 1057.81 835.075 1058.5C835.875 1058.73 837.001 1058.7 838.374 1058.68Z" fill="black" stroke="black" stroke-width="2"/>
<path d="M906.584 969.067C911.888 988.072 899.071 989.84 905.7 995.585C911.888 998.237 915.911 995.393 916.1 994.638" stroke="black" stroke-width="3" stroke-linecap="round"/>
<path d="M823.937 1145.85C827.914 1143.64 830.381 1142.72 834.544 1143.2C834.746 1142.16 834.619 1141.51 831.892 1139.67C830.566 1139.22 828.356 1138.78 825.704 1140.55C823.919 1142.3 823.517 1143.46 823.937 1145.85Z" fill="black" stroke="black"/>
<path d="M833.66 1173.7C827.03 1176.79 823.053 1178.56 815.539 1180.33C816.865 1183.86 820.401 1184.75 823.495 1185.19C826.588 1185.63 831.715 1182.98 832.776 1181.21C834.102 1179 834.986 1177.23 833.66 1173.7Z" fill="#EFEFEF" stroke="black" stroke-width="3"/>
<path d="M901.032 1134.03C894.381 1136.83 887.99 1139.53 880.508 1140.99C881.7 1144.58 886.272 1145.3 889.347 1145.85C892.422 1146.41 896.419 1144.53 898.187 1142.76C899.955 1140.99 901.281 1137.9 901.281 1133.92L901.032 1134.03Z" fill="#EFEFEF" stroke="black" stroke-width="3"/>
<path d="M918.273 960.54C939.693 962.869 943.996 962.63 942.633 960.54C933.393 958.02 927.513 956.34 918.273 954.24C912.393 954.24 912.813 959.947 918.273 960.54Z" fill="black" stroke="black"/>
<path d="M918.273 1016.82C925.833 1014.72 930.453 1008.42 932.973 1002.12C919.533 1005.06 915.333 1005.48 906.093 1005.48C908.193 1013.04 909.873 1016.82 918.273 1016.82Z" stroke="black" stroke-width="3"/>
<path d="M897.273 963.48C891.813 966.84 890.178 966.88 885.093 968.52V964.32C889.685 961.696 887.613 962.64 893.493 959.28C896.853 957.712 904.833 957.6 897.273 963.48Z" fill="black" stroke="black"/>
<path d="M849.392 1039.92L848.973 1044.12C845.613 1042.02 846.453 1041.6 840.573 1040.34C838.053 1039.5 838.472 1034.88 843.513 1036.14C845.612 1036.67 847.26 1038.28 849.392 1039.92Z" fill="black" stroke="black"/>
<path d="M447.922 1486L443.922 1490C435.422 1505 415.422 1505.5 388.422 1503.5C346.422 1498.5 303.422 1460 294.422 1439C357.46 1435.38 388.422 1447.5 433.363 1480.5C409.135 1458.15 385.577 1432.62 363.422 1404.34C316.922 1419 249.922 1391.35 226.922 1326.5C272.422 1328.5 306.397 1342.93 347.355 1383C329.344 1358.11 312.452 1331.36 297.111 1303C254.922 1312 199.422 1274.36 181.422 1205C217.422 1209.5 250.922 1232.5 282.422 1274.36C268.983 1246.68 257.049 1217.65 246.982 1187.5C212.922 1189.5 159.922 1152 155.422 1071.5C191.422 1086.5 217.422 1114 238.273 1159.5C227.934 1123.65 220.271 1086.37 215.856 1048C169.922 1040 145.922 973.5 158.422 932C184.922 950 198.422 971.5 213.16 1019C210.879 986.788 210.924 953.89 213.62 920.5C170.922 907 166.422 845 183.922 804C203.922 824.5 213.62 854.5 216.557 892C221.208 854.941 229.186 817.354 240.922 779.5L245.422 781.5C235.032 819.127 227.782 856.872 223.621 894.5C240.589 843.273 256.422 828 287.422 814.5C287.422 867.5 259.922 910 221.059 923C218.736 956.529 218.867 989.918 221.416 1023C229.922 969.5 247.922 950.5 273.922 932C281.922 997.5 253.422 1040 223.81 1048C228.324 1087.43 236.296 1126.36 247.666 1164.5C247.666 1094.5 266.422 1074 287.922 1051.5C302.422 1106 294.922 1159.5 254.966 1187.5C266.864 1222.82 281.716 1257.39 299.473 1291C281.422 1246.5 292.922 1189 316.422 1159.5C338.422 1198.5 344.422 1267 305.96 1303C322.731 1333.33 341.897 1362.84 363.422 1391.35C336.422 1344.5 343.922 1276.5 363.422 1250C400.422 1306.5 398.422 1363 370.83 1401C389.92 1425.47 410.772 1449.17 433.363 1472C416.422 1423 409.422 1386 419.922 1339C438.422 1357.5 473.922 1400.5 465.922 1454C464.651 1462.5 460.481 1472.84 447.922 1486Z" fill="url(#paint2_linear_103_211)"/>
<path d="M1272.08 1486.5L1276.08 1490.5C1284.58 1505.5 1304.58 1506 1331.58 1504C1373.58 1499 1416.58 1460.5 1425.58 1439.5C1362.54 1435.88 1331.58 1448 1286.64 1481C1310.87 1458.65 1334.42 1433.12 1356.58 1404.84C1403.08 1419.5 1470.08 1391.85 1493.08 1327C1447.58 1329 1413.6 1343.43 1372.65 1383.5C1390.66 1358.61 1407.55 1331.86 1422.89 1303.5C1465.08 1312.5 1520.58 1274.86 1538.58 1205.5C1502.58 1210 1469.08 1233 1437.58 1274.86C1451.02 1247.18 1462.95 1218.15 1473.02 1188C1507.08 1190 1560.08 1152.5 1564.58 1072C1528.58 1087 1502.58 1114.5 1481.73 1160C1492.07 1124.15 1499.73 1086.87 1504.14 1048.5C1550.08 1040.5 1574.08 974 1561.58 932.5C1535.08 950.5 1521.58 972 1506.84 1019.5C1509.12 987.288 1509.08 954.39 1506.38 921C1549.08 907.5 1553.58 845.5 1536.08 804.5C1516.08 825 1506.38 855 1503.44 892.5C1498.79 855.441 1490.81 817.854 1479.08 780L1474.58 782C1484.97 819.627 1492.22 857.372 1496.38 895C1479.41 843.773 1463.58 828.5 1432.58 815C1432.58 868 1460.08 910.5 1498.94 923.5C1501.26 957.029 1501.13 990.418 1498.58 1023.5C1490.08 970 1472.08 951 1446.08 932.5C1438.08 998 1466.58 1040.5 1496.19 1048.5C1491.68 1087.93 1483.7 1126.86 1472.33 1165C1472.33 1095 1453.58 1074.5 1432.08 1052C1417.58 1106.5 1425.08 1160 1465.03 1188C1453.14 1223.32 1438.28 1257.89 1420.53 1291.5C1438.58 1247 1427.08 1189.5 1403.58 1160C1381.58 1199 1375.58 1267.5 1414.04 1303.5C1397.27 1333.83 1378.1 1363.34 1356.58 1391.85C1383.58 1345 1376.08 1277 1356.58 1250.5C1319.58 1307 1321.58 1363.5 1349.17 1401.5C1330.08 1425.97 1309.23 1449.67 1286.64 1472.5C1303.58 1423.5 1310.58 1386.5 1300.08 1339.5C1281.58 1358 1246.08 1401 1254.08 1454.5C1255.35 1463 1259.52 1473.34 1272.08 1486.5Z" fill="url(#paint3_linear_103_211)"/>
<path d="M490.636 1447.31C493.964 1443.2 499.912 1442.4 504.258 1445.41C701.312 1581.86 971.637 1606.87 1217.03 1449.37C1221.37 1446.59 1227.15 1447.45 1230.39 1451.46L1309.45 1549.42C1313.07 1553.91 1312.09 1560.58 1307.34 1563.86C999.467 1776.81 671.559 1740.48 411.91 1561.4C407.15 1558.11 406.221 1551.46 409.862 1546.97L490.636 1447.31Z" fill="url(#paint4_linear_103_211)"/>
<path d="M510.399 1579.01C508.205 1577.86 505.73 1576.43 502.974 1574.7C501.954 1574.07 500.632 1573.29 499.007 1572.34C497.458 1571.44 495.7 1570.47 493.733 1569.44L485.958 1565.53C484.556 1564.9 482.645 1563.95 480.224 1562.68C480.073 1562.6 480.116 1562.34 480.353 1561.88C480.59 1561.43 480.784 1561.24 480.935 1561.32C483.81 1562.82 485.989 1563.72 487.472 1564.01C489.032 1564.34 490.314 1564.1 491.321 1563.28C492.443 1562.42 493.596 1560.85 494.78 1558.59L522.199 1506.05C523.384 1503.78 524.025 1501.99 524.124 1500.7C524.223 1499.4 523.69 1498.21 522.526 1497.12C521.477 1495.99 519.515 1494.68 516.64 1493.18C516.489 1493.1 516.531 1492.84 516.768 1492.38C517.005 1491.93 517.199 1491.74 517.351 1491.82L522.965 1494.89C526.064 1496.7 528.558 1498.1 530.45 1499.09C533.324 1500.59 536.221 1501.96 539.138 1503.19C542.546 1504.78 544.893 1505.9 546.179 1506.58C554.046 1510.68 560.217 1515.83 564.69 1522.01C569.162 1528.2 571.701 1534.77 572.306 1541.72C572.986 1548.72 571.628 1555.47 568.233 1561.98C564.403 1569.32 559.268 1574.91 552.827 1578.77C546.501 1582.59 539.579 1584.51 532.059 1584.54C524.579 1584.48 517.359 1582.64 510.399 1579.01ZM510.153 1576.71C516.205 1579.87 522.228 1581.43 528.221 1581.38C534.254 1581.25 539.839 1579.4 544.977 1575.83C550.231 1572.22 554.674 1566.93 558.306 1559.97C561.741 1553.39 563.611 1546.76 563.918 1540.09C564.225 1533.42 562.88 1527.32 559.884 1521.81C556.888 1516.3 552.364 1511.97 546.312 1508.81C543.059 1507.11 540.426 1505.98 538.413 1505.41C536.475 1504.88 534.794 1504.97 533.37 1505.67C531.946 1506.37 530.641 1507.85 529.457 1510.12L502.808 1561.19C501.623 1563.46 500.998 1565.39 500.932 1566.99C500.942 1568.63 501.639 1570.25 503.024 1571.84C504.523 1573.39 506.9 1575.02 510.153 1576.71Z" fill="#0B2846"/>
<path d="M567.328 1605.72C567.17 1605.65 567.188 1605.39 567.382 1604.91C567.576 1604.44 567.752 1604.23 567.91 1604.3C570.042 1605.17 571.703 1605.62 572.891 1605.65C574.191 1605.62 575.264 1605.14 576.112 1604.2C576.959 1603.25 577.868 1601.6 578.837 1599.23L587.905 1577.08C589.068 1574.23 589.593 1572.05 589.478 1570.53C589.443 1569.04 588.714 1568 587.293 1567.42C585.871 1566.84 583.868 1566.66 581.283 1566.9L581.165 1566.85C580.849 1566.72 580.693 1566.42 580.696 1565.96C580.7 1565.51 580.853 1565.25 581.154 1565.18L599.463 1564.38L599.986 1564.46C600.144 1564.52 600.293 1564.72 600.433 1565.05C600.605 1565.31 600.643 1565.55 600.546 1565.79C600.319 1566.34 599.633 1567.91 598.488 1570.48C597.342 1573.05 596.042 1576.12 594.587 1579.67L585.471 1601.94C584.501 1604.31 583.988 1606.13 583.93 1607.4C583.872 1608.66 584.26 1609.75 585.092 1610.64C585.957 1611.45 587.456 1612.3 589.588 1613.17C589.825 1613.27 589.847 1613.55 589.653 1614.03C589.459 1614.5 589.243 1614.69 589.007 1614.59C587.19 1613.85 585.745 1613.21 584.672 1612.68L578.324 1609.94L571.878 1607.44C570.74 1607.07 569.224 1606.5 567.328 1605.72ZM602.105 1549.14C600.526 1548.49 599.44 1547.54 598.848 1546.29C598.256 1545.03 598.283 1543.61 598.929 1542.03C599.576 1540.45 600.551 1539.42 601.854 1538.94C603.157 1538.46 604.599 1538.54 606.178 1539.19C607.758 1539.84 608.804 1540.77 609.317 1542C609.83 1543.22 609.764 1544.62 609.117 1546.2C608.471 1547.78 607.535 1548.83 606.311 1549.34C605.087 1549.85 603.685 1549.79 602.105 1549.14Z" fill="#0B2846"/>
<path d="M626.243 1629.58C621.537 1628.05 617.728 1625.55 614.816 1622.09C612.011 1618.58 610.269 1614.55 609.59 1610.03C608.936 1605.42 609.363 1600.8 610.868 1596.17C612.585 1590.9 615.295 1586.85 618.999 1584.01C622.811 1581.13 626.995 1579.44 631.552 1578.95C636.217 1578.4 640.618 1578.8 644.756 1580.15C649.544 1581.71 653.34 1584.24 656.144 1587.76C658.948 1591.27 660.65 1595.28 661.248 1599.78C661.954 1604.23 661.608 1608.61 660.208 1612.91C658.57 1617.94 655.954 1621.98 652.36 1625.02C648.792 1627.99 644.676 1629.88 640.014 1630.7C635.458 1631.46 630.868 1631.09 626.243 1629.58ZM630.525 1628.42C634.988 1629.87 638.952 1629.41 642.416 1627.04C645.881 1624.67 648.683 1620.19 650.822 1613.62C652.459 1608.59 653.073 1603.81 652.663 1599.28C652.335 1594.77 651.066 1590.95 648.858 1587.81C646.677 1584.59 643.72 1582.37 639.987 1581.15C635.605 1579.73 631.682 1580.2 628.218 1582.57C624.835 1584.97 622.179 1589.13 620.251 1595.05C618.64 1600 617.972 1604.81 618.248 1609.48C618.524 1614.15 619.726 1618.17 621.855 1621.56C623.984 1624.94 626.874 1627.23 630.525 1628.42Z" fill="#0B2846"/>
<path d="M685.386 1601.77C684.692 1604.68 685.091 1607.23 686.583 1609.43C688.095 1611.55 690.49 1614.01 693.769 1616.81C696.317 1619 698.25 1620.82 699.569 1622.27C700.971 1623.75 702.045 1625.5 702.79 1627.52C703.535 1629.54 703.61 1631.79 703.015 1634.28C702.003 1638.52 699.574 1641.71 695.725 1643.86C691.877 1646.01 687.256 1646.44 681.861 1645.15C677.462 1644.1 673.776 1641.9 670.802 1638.56C670.384 1638.11 670.254 1637.55 670.413 1636.89L672.485 1627.12C672.544 1626.87 672.782 1626.79 673.196 1626.89C673.714 1626.93 673.985 1627.08 674.008 1627.35C674.574 1631.96 675.843 1635.64 677.817 1638.39C679.894 1641.08 682.592 1642.83 685.912 1643.62C688.485 1644.23 690.616 1644.13 692.305 1643.31C694.096 1642.42 695.279 1640.77 695.855 1638.36C696.41 1636.04 696.337 1633.96 695.635 1632.13C695.036 1630.23 694.098 1628.64 692.823 1627.37C691.567 1626.02 689.811 1624.37 687.556 1622.43C685.134 1620.45 683.223 1618.72 681.821 1617.24C680.502 1615.79 679.469 1614.05 678.724 1612.03C678.062 1610.03 678.038 1607.74 678.653 1605.17C679.724 1600.68 682.198 1597.68 686.073 1596.15C690.051 1594.55 694.323 1594.3 698.887 1595.39C702.207 1596.19 705.088 1597.53 707.529 1599.43C707.987 1599.72 708.228 1600 708.252 1600.27C708.378 1600.47 708.401 1600.74 708.322 1601.07C707.925 1602.73 707.576 1604.01 707.275 1604.9L705.901 1610.1C705.861 1610.27 705.592 1610.29 705.094 1610.17C704.596 1610.05 704.367 1609.91 704.407 1609.74C705.042 1607.09 704.186 1604.43 701.84 1601.76C699.578 1599.11 696.911 1597.42 693.84 1596.69C691.682 1596.17 689.842 1596.35 688.319 1597.21C686.899 1598.01 685.922 1599.53 685.386 1601.77Z" fill="#0B2846"/>
<path d="M806.878 1613.9C807.133 1613.93 807.232 1614.2 807.175 1614.71C807.119 1615.22 806.963 1615.46 806.709 1615.43C804.589 1615.19 802.638 1615.75 800.857 1617.1C799.171 1618.37 797.494 1620.72 795.827 1624.14L775.722 1663.77C771.672 1671.64 767.994 1677.72 764.687 1681.99C761.456 1686.35 758.248 1689.35 755.063 1690.97C751.954 1692.68 748.491 1693.33 744.674 1692.91C742.808 1692.7 741.329 1692.11 740.235 1691.13C739.057 1690.14 738.557 1688.84 738.736 1687.23C738.868 1686.04 739.353 1685.15 740.191 1684.55C741.03 1683.96 742 1683.72 743.103 1683.85C744.206 1683.97 745.124 1684.2 745.859 1684.54C746.595 1684.88 747.353 1685.39 748.136 1686.08C748.296 1686.18 748.734 1686.49 749.45 1687C750.252 1687.51 751.246 1687.84 752.433 1687.97C754.554 1688.21 756.655 1687.45 758.737 1685.71C760.81 1684.05 763.155 1681.09 765.774 1676.83C768.478 1672.58 771.803 1666.59 775.749 1658.88L775.227 1662.42L759.654 1619.36C758.117 1615.41 756.901 1612.83 756.005 1611.61C755.119 1610.31 753.87 1609.57 752.259 1609.39C752.089 1609.37 752.032 1609.11 752.089 1608.6C752.145 1608.09 752.258 1607.85 752.428 1607.87L756.739 1608.47C757.748 1608.67 759.142 1608.87 760.923 1609.07L769.08 1609.84C770.276 1609.89 771.935 1610.03 774.055 1610.26C774.225 1610.28 774.282 1610.55 774.225 1611.06C774.169 1611.56 774.056 1611.81 773.886 1611.79C768.967 1611.25 766.399 1611.95 766.183 1613.9C766.126 1614.41 766.263 1615.11 766.593 1616.01L780.045 1653.81L776.541 1658.71L792.986 1624.21C793.89 1622.25 794.408 1620.68 794.54 1619.49C794.756 1617.54 794.143 1616.1 792.701 1615.16C791.268 1614.15 788.813 1613.45 785.336 1613.06C785.166 1613.04 785.11 1612.78 785.166 1612.27C785.223 1611.76 785.336 1611.52 785.505 1611.53C787.795 1611.79 789.529 1612.02 790.707 1612.24L798.326 1613.21L802.92 1613.59C803.778 1613.6 805.097 1613.71 806.878 1613.9Z" fill="#0B2846"/>
<path d="M848.976 1664.98C848.805 1664.98 848.712 1664.73 848.698 1664.22C848.683 1663.71 848.761 1663.45 848.931 1663.44C852.172 1663.35 854.555 1663.07 856.078 1662.6C857.601 1662.13 858.601 1661.29 859.078 1660.08C859.638 1658.78 859.881 1656.85 859.807 1654.29L858.089 1595.05C858.015 1592.49 857.662 1590.63 857.03 1589.45C856.484 1588.27 855.437 1587.49 853.889 1587.11C852.424 1586.64 850.071 1586.45 846.83 1586.54C846.659 1586.55 846.566 1586.3 846.552 1585.78C846.537 1585.27 846.615 1585.01 846.785 1585.01L898.22 1583.52C898.987 1583.5 899.382 1583.87 899.405 1584.64L900.117 1600.37C900.124 1600.62 899.873 1600.8 899.364 1600.9C898.937 1600.91 898.72 1600.79 898.713 1600.53C898.326 1596.02 896.86 1592.56 894.315 1590.16C891.767 1587.67 888.446 1586.49 884.351 1586.61L876.547 1586.84C873.647 1586.92 871.478 1587.2 870.04 1587.66C868.602 1588.13 867.601 1588.93 867.036 1590.06C866.471 1591.18 866.22 1592.81 866.281 1594.94L867.98 1653.54C868.059 1656.27 868.459 1658.27 869.178 1659.53C869.98 1660.7 871.455 1661.51 873.603 1661.96C875.835 1662.41 879.254 1662.56 883.86 1662.43C884.116 1662.42 884.252 1662.68 884.267 1663.19C884.281 1663.7 884.161 1663.96 883.905 1663.97C880.408 1664.07 877.677 1664.1 875.713 1664.08L864.194 1664.28L855.497 1664.66C853.964 1664.79 851.79 1664.9 848.976 1664.98ZM893.193 1635.4C893.084 1631.64 891.983 1628.99 889.889 1627.43C887.88 1625.86 884.53 1625.15 879.838 1625.28L863.333 1625.76L863.255 1623.08L880.144 1622.59C884.665 1622.45 887.844 1621.68 889.681 1620.26C891.601 1618.75 892.515 1616.42 892.423 1613.27C892.418 1613.1 892.672 1613 893.184 1612.99C893.695 1612.97 893.954 1613.05 893.959 1613.22L894.131 1623.59C894.203 1626.06 894.3 1627.94 894.422 1629.21L894.728 1635.35C894.733 1635.52 894.48 1635.62 893.968 1635.63C893.456 1635.65 893.198 1635.57 893.193 1635.4Z" fill="#0B2846"/>
<path d="M955.429 1658.52C955.11 1658.73 954.782 1658.86 954.443 1658.9C953.172 1659.05 951.954 1658.21 950.789 1656.37C949.625 1654.53 948.851 1652 948.467 1648.78L945.602 1624.76C944.47 1615.27 941.235 1610.84 935.897 1611.48C933.016 1611.82 930.929 1613.06 929.637 1615.19C928.418 1617.23 927.702 1619.5 927.486 1622.02C927.339 1623.67 926.983 1625 926.416 1626.02C925.934 1627.02 924.888 1627.62 923.278 1627.81C921.922 1627.97 920.818 1627.72 919.964 1627.04C919.195 1626.36 918.75 1625.51 918.629 1624.5C918.386 1622.46 919.457 1620.27 921.841 1617.93C924.226 1615.58 927.159 1613.51 930.641 1611.72C934.122 1609.93 937.304 1608.86 940.185 1608.52C943.659 1608.11 946.417 1608.89 948.459 1610.88C950.501 1612.88 951.77 1615.95 952.265 1620.1L955.099 1643.87C955.453 1646.83 956.092 1648.95 957.016 1650.21C957.94 1651.48 959.25 1652.01 960.945 1651.81C962.639 1651.6 964.692 1650.8 967.102 1649.4L967.357 1649.37C967.696 1649.33 967.933 1649.51 968.068 1649.93C968.193 1650.25 968.096 1650.52 967.778 1650.73L955.429 1658.52ZM932.566 1661.38C929.431 1661.75 926.878 1661.24 924.907 1659.84C923.01 1658.35 921.91 1656.33 921.607 1653.79C921.304 1651.25 922.058 1648.92 923.869 1646.82C925.68 1644.71 928.815 1642.53 933.273 1640.28L947.843 1632.74L948.421 1634.35L935.57 1641.17C933.309 1642.38 931.703 1643.69 930.753 1645.09C929.878 1646.4 929.541 1647.9 929.743 1649.6C929.986 1651.63 930.829 1653.29 932.271 1654.58C933.789 1655.77 935.607 1656.25 937.725 1655.99C939.42 1655.79 941.372 1654.87 943.583 1653.23L951.015 1647.45L951.466 1649.07L942.788 1656.29C940.831 1657.9 939.083 1659.1 937.544 1659.88C936.005 1660.67 934.346 1661.17 932.566 1661.38Z" fill="#0B2846"/>
<path d="M1045.09 1639.89C1044.84 1639.95 1044.66 1639.73 1044.54 1639.23C1044.43 1638.73 1044.49 1638.46 1044.74 1638.4C1046.98 1637.87 1048.6 1637.27 1049.58 1636.61C1050.54 1635.85 1051.09 1634.85 1051.24 1633.59C1051.36 1632.24 1051.14 1630.37 1050.57 1627.96L1045.92 1608.14C1044.77 1603.24 1043.04 1599.79 1040.73 1597.79C1038.42 1595.79 1035.44 1595.22 1031.79 1596.08C1028.88 1596.76 1026.12 1598.46 1023.52 1601.17C1020.97 1603.79 1019.01 1607.01 1017.63 1610.84L1016.78 1609.46C1019.12 1603.74 1021.73 1599.36 1024.61 1596.32C1027.55 1593.17 1030.94 1591.15 1034.76 1590.25C1039.16 1589.22 1042.82 1589.68 1045.73 1591.62C1048.64 1593.57 1050.69 1597.08 1051.88 1602.14L1057.55 1626.32C1058.14 1628.81 1058.77 1630.59 1059.46 1631.66C1060.15 1632.72 1061.09 1633.38 1062.29 1633.62C1063.47 1633.78 1065.18 1633.6 1067.42 1633.08C1067.67 1633.02 1067.85 1633.24 1067.97 1633.74C1068.09 1634.23 1068.02 1634.51 1067.77 1634.57C1065.86 1635.02 1064.31 1635.34 1063.13 1635.53L1056.37 1636.98L1049.67 1638.69C1048.53 1639.04 1047 1639.44 1045.09 1639.89ZM1012.94 1647.44C1012.69 1647.5 1012.51 1647.28 1012.39 1646.78C1012.27 1646.28 1012.34 1646 1012.59 1645.94C1014.83 1645.42 1016.45 1644.82 1017.43 1644.15C1018.39 1643.4 1018.9 1642.4 1018.96 1641.16C1019.1 1639.9 1018.88 1638.02 1018.3 1635.53L1013.65 1615.72C1012.5 1610.82 1010.77 1607.36 1008.46 1605.37C1006.15 1603.37 1003.21 1602.78 999.635 1603.62C996.645 1604.32 993.888 1606.02 991.365 1608.72C988.822 1611.33 986.861 1614.55 985.481 1618.38L984.632 1617C986.971 1611.28 989.58 1606.9 992.46 1603.86C995.403 1600.72 998.744 1598.7 1002.48 1597.83C1006.89 1596.79 1010.54 1597.25 1013.45 1599.2C1016.45 1601.12 1018.52 1604.54 1019.67 1609.44L1025.4 1633.86C1025.99 1636.36 1026.62 1638.14 1027.31 1639.2C1028 1640.27 1028.94 1640.92 1030.14 1641.17C1031.32 1641.33 1033.03 1641.15 1035.27 1640.62C1035.52 1640.56 1035.7 1640.78 1035.82 1641.28C1035.94 1641.78 1035.87 1642.06 1035.62 1642.12C1033.71 1642.56 1032.16 1642.88 1030.98 1643.07L1024.22 1644.53L1017.4 1646.26C1016.34 1646.6 1014.85 1646.99 1012.94 1647.44ZM980.915 1654.95C980.666 1655.01 980.482 1654.79 980.366 1654.29C980.249 1653.79 980.315 1653.52 980.564 1653.46C982.807 1652.93 984.42 1652.33 985.402 1651.66C986.365 1650.91 986.877 1649.92 986.936 1648.68C987.078 1647.41 986.857 1645.54 986.272 1643.05L980.482 1618.37C979.82 1615.55 979.01 1613.59 978.053 1612.5C977.096 1611.41 975.828 1611.05 974.249 1611.42C972.92 1611.73 970.823 1612.88 967.959 1614.87L967.71 1614.93C967.377 1615.01 967.089 1614.9 966.845 1614.6C966.664 1614.21 966.721 1613.89 967.014 1613.64L979.861 1603.4C980.008 1603.28 980.247 1603.18 980.58 1603.1C981.327 1602.92 982.341 1603.69 983.62 1605.41C984.899 1607.12 985.889 1609.48 986.591 1612.47L993.375 1641.38C993.96 1643.87 994.555 1645.66 995.161 1646.75C995.849 1647.81 996.791 1648.47 997.988 1648.71C999.166 1648.87 1000.88 1648.69 1003.12 1648.16C1003.37 1648.11 1003.55 1648.33 1003.67 1648.82C1003.79 1649.32 1003.72 1649.6 1003.47 1649.66C1001.56 1650.11 1000.05 1650.42 998.955 1650.59L992.196 1652.04L985.372 1653.78C984.311 1654.11 982.826 1654.5 980.915 1654.95Z" fill="#0B2846"/>
<path d="M1082.46 1628.54C1082.3 1628.6 1082.14 1628.38 1081.97 1627.9C1081.81 1627.41 1081.8 1627.14 1081.97 1627.09C1084.15 1626.34 1085.69 1625.59 1086.6 1624.83C1087.57 1623.96 1088.06 1622.89 1088.08 1621.62C1088.1 1620.35 1087.69 1618.5 1086.86 1616.08L1079.13 1593.43C1078.13 1590.52 1077.09 1588.53 1076 1587.46C1075 1586.36 1073.77 1586.06 1072.31 1586.56C1070.86 1587.06 1069.24 1588.24 1067.44 1590.12L1067.32 1590.16C1067 1590.27 1066.69 1590.15 1066.39 1589.8C1066.09 1589.45 1066.03 1589.16 1066.22 1588.91L1079.48 1576.26L1079.93 1575.98C1080.09 1575.92 1080.33 1575.97 1080.66 1576.13C1080.95 1576.21 1081.14 1576.37 1081.23 1576.62C1081.42 1577.18 1081.93 1578.81 1082.76 1581.5C1083.59 1584.19 1084.63 1587.36 1085.87 1590.99L1093.65 1613.76C1094.47 1616.19 1095.28 1617.89 1096.07 1618.89C1096.86 1619.88 1097.86 1620.44 1099.08 1620.56C1100.27 1620.61 1101.95 1620.26 1104.13 1619.51C1104.37 1619.43 1104.58 1619.63 1104.74 1620.12C1104.91 1620.6 1104.87 1620.89 1104.63 1620.97C1102.77 1621.6 1101.26 1622.07 1100.11 1622.38L1093.52 1624.49L1087.02 1626.85C1085.92 1627.31 1084.4 1627.88 1082.46 1628.54ZM1071.45 1563.05C1069.84 1563.6 1068.39 1563.6 1067.12 1563.04C1065.85 1562.48 1064.94 1561.4 1064.38 1559.78C1063.83 1558.17 1063.89 1556.75 1064.56 1555.53C1065.22 1554.31 1066.36 1553.42 1067.98 1552.87C1069.59 1552.32 1070.99 1552.34 1072.19 1552.92C1073.38 1553.51 1074.25 1554.61 1074.8 1556.22C1075.35 1557.84 1075.34 1559.24 1074.75 1560.43C1074.17 1561.62 1073.07 1562.5 1071.45 1563.05Z" fill="#0B2846"/>
<path d="M1119.08 1615.56C1118.84 1615.65 1118.62 1615.46 1118.43 1614.99C1118.24 1614.51 1118.26 1614.23 1118.5 1614.13C1120.64 1613.27 1122.14 1612.44 1123.01 1611.62C1123.85 1610.74 1124.24 1609.66 1124.19 1608.39C1124.11 1607.04 1123.61 1605.22 1122.68 1602.93L1097.95 1541.54C1096.8 1538.7 1095.7 1536.75 1094.63 1535.71C1093.57 1534.66 1092.32 1534.43 1090.9 1535C1089.71 1535.48 1088.11 1536.77 1086.11 1538.86L1085.87 1538.96C1085.63 1539.06 1085.35 1538.94 1085.04 1538.61C1084.8 1538.24 1084.78 1537.97 1084.99 1537.8L1097.27 1524.43C1097.39 1524.29 1097.57 1524.17 1097.81 1524.07C1098.05 1523.98 1098.33 1524 1098.67 1524.14C1098.97 1524.21 1099.17 1524.36 1099.26 1524.59L1129.69 1600.1C1130.61 1602.4 1131.45 1604.04 1132.22 1605.02C1133.06 1605.97 1134.09 1606.47 1135.31 1606.53C1136.53 1606.59 1138.21 1606.19 1140.35 1605.33C1140.58 1605.23 1140.8 1605.42 1140.99 1605.9C1141.18 1606.37 1141.16 1606.66 1140.92 1606.76C1139.18 1607.46 1137.74 1607.99 1136.6 1608.36L1129.9 1610.92L1123.54 1613.62C1122.46 1614.15 1120.98 1614.79 1119.08 1615.56Z" fill="#0B2846"/>
<path d="M1156.16 1600.09C1156 1600.17 1155.81 1599.97 1155.6 1599.51C1155.38 1599.04 1155.35 1598.77 1155.51 1598.7C1157.59 1597.73 1159.05 1596.81 1159.87 1595.96C1160.74 1594.99 1161.11 1593.87 1160.99 1592.61C1160.88 1591.34 1160.27 1589.55 1159.19 1587.23L1149.07 1565.54C1147.77 1562.76 1146.52 1560.89 1145.32 1559.95C1144.2 1558.96 1142.95 1558.79 1141.56 1559.44C1140.16 1560.09 1138.68 1561.45 1137.09 1563.51L1136.98 1563.56C1136.67 1563.7 1136.35 1563.62 1136.01 1563.3C1135.68 1562.99 1135.59 1562.7 1135.75 1562.44L1147.58 1548.44L1147.99 1548.11C1148.14 1548.03 1148.39 1548.06 1148.73 1548.18C1149.03 1548.23 1149.24 1548.37 1149.35 1548.6C1149.6 1549.14 1150.28 1550.71 1151.4 1553.3C1152.51 1555.88 1153.88 1558.92 1155.51 1562.4L1165.69 1584.2C1166.77 1586.52 1167.76 1588.13 1168.65 1589.03C1169.54 1589.93 1170.6 1590.38 1171.82 1590.38C1173.01 1590.29 1174.64 1589.77 1176.73 1588.79C1176.96 1588.68 1177.19 1588.86 1177.4 1589.32C1177.62 1589.79 1177.61 1590.07 1177.38 1590.18C1175.6 1591.01 1174.15 1591.64 1173.03 1592.07L1166.72 1594.88L1160.51 1597.92C1159.46 1598.5 1158.01 1599.23 1156.16 1600.09ZM1138.17 1536.16C1136.63 1536.88 1135.19 1537.04 1133.86 1536.62C1132.54 1536.2 1131.52 1535.22 1130.79 1533.67C1130.07 1532.13 1129.98 1530.71 1130.51 1529.43C1131.04 1528.14 1132.08 1527.14 1133.62 1526.42C1135.17 1525.7 1136.57 1525.56 1137.81 1526.02C1139.06 1526.47 1140.05 1527.47 1140.77 1529.02C1141.49 1530.56 1141.62 1531.96 1141.17 1533.21C1140.72 1534.46 1139.72 1535.44 1138.17 1536.16Z" fill="#0B2846"/>
<path d="M1222.46 1567.1C1222.25 1567.41 1221.99 1567.65 1221.69 1567.82C1220.57 1568.43 1219.12 1568.11 1217.35 1566.85C1215.58 1565.59 1213.91 1563.54 1212.34 1560.7L1200.63 1539.53C1196.01 1531.16 1191.34 1528.28 1186.64 1530.88C1184.1 1532.29 1182.63 1534.22 1182.24 1536.68C1181.88 1539.03 1182.07 1541.41 1182.82 1543.82C1183.31 1545.4 1183.48 1546.77 1183.34 1547.92C1183.27 1549.03 1182.52 1549.98 1181.11 1550.77C1179.91 1551.43 1178.79 1551.61 1177.75 1551.31C1176.78 1550.96 1176.05 1550.35 1175.55 1549.45C1174.56 1547.66 1174.73 1545.22 1176.05 1542.15C1177.37 1539.08 1179.31 1536.06 1181.86 1533.09C1184.41 1530.12 1186.96 1527.93 1189.49 1526.53C1192.56 1524.83 1195.41 1524.52 1198.05 1525.6C1200.69 1526.67 1203.02 1529.04 1205.05 1532.7L1216.63 1553.64C1218.08 1556.26 1219.47 1557.98 1220.8 1558.8C1222.13 1559.62 1223.54 1559.62 1225.04 1558.8C1226.53 1557.97 1228.13 1556.45 1229.83 1554.24L1230.06 1554.12C1230.36 1553.95 1230.65 1554.04 1230.93 1554.37C1231.17 1554.63 1231.18 1554.91 1230.96 1555.23L1222.46 1567.1ZM1202.36 1578.36C1199.6 1579.89 1197.04 1580.37 1194.69 1579.82C1192.37 1579.15 1190.59 1577.7 1189.35 1575.46C1188.11 1573.22 1187.93 1570.78 1188.82 1568.15C1189.7 1565.51 1191.78 1562.32 1195.06 1558.55L1205.72 1546.08L1206.86 1547.35L1197.53 1558.51C1195.89 1560.48 1194.9 1562.3 1194.54 1563.96C1194.23 1565.5 1194.48 1567.02 1195.31 1568.51C1196.3 1570.3 1197.7 1571.52 1199.53 1572.17C1201.38 1572.71 1203.24 1572.46 1205.11 1571.43C1206.6 1570.6 1208.06 1569.01 1209.49 1566.66L1214.2 1558.5L1215.23 1559.83L1209.91 1569.79C1208.71 1572.02 1207.54 1573.79 1206.41 1575.1C1205.28 1576.4 1203.93 1577.49 1202.36 1578.36Z" fill="#0B2846"/>
<path d="M975.74 336.697C993.736 327.1 1016.04 333.869 1021.7 350.839C1030.18 355.788 1032.94 359.8 1035.13 369.93C1011.8 358.616 996.246 368.515 982.104 401.041C975.033 409.525 968.67 455.485 936.145 483.768C921.917 494.98 910.794 499.311 885.235 501.445C876.043 509.93 869.68 513.465 849.175 509.222C846.347 514.172 841.202 516.797 834.326 519.121C825.128 546.238 819.143 556.005 806.751 562.253C807.361 557.802 807.938 554.324 808.701 550.55C803.522 570.367 797.107 574.165 784.831 582.758C787.682 579.658 790.303 573.701 795.34 558.952C788.839 575.346 780.068 580.19 767.862 586.293C769.16 577.2 774.119 568.175 785.453 553.594C777.213 563.592 770.833 570.85 767.862 571.445C760.791 572.859 761.498 572.152 755.134 571.445C758.477 566.706 763.57 561.072 771.08 553.537C764.351 559.157 758.394 561.663 752.306 558.01C757.792 553.854 763.96 548.857 773.764 540.657C765.683 546.565 758.934 548.664 750.892 543.162C758.333 539.583 761.668 538.064 767.155 533.97C763.757 526.84 778.468 513.465 820.892 485.889C836.248 445.748 851.296 433.566 882.407 415.889C835.74 439.93 853.417 450.536 818.064 444.879C818.064 441.056 822.282 437.227 831.695 432.754C816.322 438.58 801.185 440.219 781.296 431.445C783.764 427.681 789.716 425.209 801.494 422.345C787.055 424.447 773.377 423.102 750.892 417.303C755.753 410.174 763.139 408.54 772.301 407.84C757.307 407.744 743.806 404.694 735.336 398.919C740.765 394.449 750.377 394.016 760.979 394.105C745.099 392.892 728.61 387.999 718.367 376.293C734.839 377.606 746.536 378.346 755.691 378.633C734.58 377.461 712.73 371.976 704.932 357.202L753.273 360.168C711.767 356.385 702.309 350.544 695.74 333.869C705.949 335.287 713.655 337.842 724.149 340.987C704.515 334.123 695.317 325.484 692.205 312.657C704.932 309.121 714.831 331.748 788.367 346.596C753.013 339.458 690.084 320.435 685.134 286.495L728.444 311.821C694.02 289.557 685.004 274.887 687.256 255.384C695.524 260.473 703.65 270.786 713.949 282.491C699.982 265.161 691.405 245.998 695.74 229.93C707.534 241.723 712.861 252.352 718.746 263.09C711.026 247.905 707.948 231.879 712.71 217.909C725.407 237.702 731.99 256.999 742.251 276.586C732.373 257.158 727.973 238.26 733.215 227.101C752.341 282.144 776.315 324.62 861.025 358.38C843.493 347.255 839.748 338.178 844.225 312.657C849.448 315.5 852.83 319.081 857.018 325.57C849.083 311.691 846.509 301.215 847.054 282.96C852.431 282.936 855.498 284.482 859.116 290.052C853.933 280.273 852.236 267.979 854.124 249.728C863.295 255.381 867.582 262.921 874.629 279.424C865.371 255.6 863.816 242.417 868.973 219.323C886.65 228.515 884.528 243.364 892.306 258.212C880.258 228.473 880.447 214.446 888.771 192.455C896.999 205.574 902.003 214.679 905.38 224.802C899.689 198.889 901.762 187.596 910.69 176.192C913.7 187.029 920.812 198.891 925.477 228.802C922.299 198.33 925.014 182.811 936.852 167C937.877 184.728 940.528 198.198 943.121 225.302C942.91 200.477 959.256 178.573 969.377 174.778C955.235 246.192 950.475 290.383 947.458 364.273C958.891 352.96 966.549 342.354 975.74 336.697Z" fill="#EFEFEF"/>
<path d="M920.589 379.829C931.902 375.586 938.168 373.465 947.458 364.273M849.175 509.222C869.68 513.465 876.043 509.93 885.235 501.445C910.794 499.311 921.918 494.98 936.145 483.768C968.67 455.485 975.033 409.525 982.104 401.041C996.246 368.515 1011.8 358.616 1035.13 369.93C1032.94 359.8 1030.18 355.788 1021.7 350.839C1016.04 333.869 993.736 327.1 975.74 336.697C966.549 342.354 958.891 352.96 947.458 364.273M849.175 509.222C846.277 507.884 844.225 506.394 840.69 503.566M849.175 509.222C846.347 514.172 841.202 516.797 834.326 519.121C825.128 546.238 819.143 556.005 806.751 562.253C807.848 554.258 808.835 549.399 810.993 540.334C805.336 569.323 798.973 572.859 784.831 582.758C788.188 579.108 791.227 571.496 798.266 550.233C791.534 573.842 782.003 579.222 767.862 586.293C769.721 573.274 779.085 560.392 803.922 531.142C787.217 550.977 772.811 570.455 767.862 571.445C760.791 572.859 761.498 572.152 755.134 571.445C762.022 561.681 776.347 548.111 803.922 521.95C779.882 541.748 766.448 566.495 752.306 558.01C760.668 551.674 770.614 543.388 792.609 524.778C774.151 540.334 764.326 552.354 750.892 543.162C758.333 539.583 761.668 538.064 767.155 533.97M782.71 523.364C775.705 528.562 771.994 531.875 767.155 533.97M767.155 533.97C763.757 526.84 778.468 513.465 820.892 485.889M820.892 485.889C826.242 482.388 830.289 480.368 838.569 476.697M820.892 485.889C836.248 445.748 851.296 433.566 882.407 415.889C835.74 439.93 853.417 450.536 818.064 444.879C818.064 439.93 825.134 434.968 841.397 428.616C822.434 437.441 805.336 442.051 781.296 431.445C784.726 426.214 794.885 423.478 818.064 418.717C795.863 424.835 781.58 425.217 750.892 417.303C761.498 401.748 784.124 412.354 810.993 401.748C783.417 410.94 750.892 409.525 735.336 398.919C747.357 389.02 779.882 398.919 798.266 390.435C781.296 396.091 738.165 398.919 718.367 376.293C765.452 380.045 773.518 379.121 794.73 376.293C773.518 380.536 718.367 382.657 704.932 357.202L820.185 364.273C719.781 359.323 704.932 357.202 695.74 333.869C721.195 337.404 731.094 348.01 807.458 357.202C726.408 346.413 698.162 337.207 692.205 312.657C704.932 309.121 714.831 331.748 788.367 346.596C753.013 339.458 690.084 320.435 685.134 286.495L768.569 335.283C700.751 298.25 684.301 280.979 687.256 255.384C705.639 266.697 723.316 303.837 765.74 324.677C731.094 307.658 686.965 262.455 695.74 229.93C723.316 257.505 715.538 278.717 762.205 309.829C730.387 290.327 702.104 249.02 712.71 217.909C736.751 255.384 738.872 291.083 785.538 330.334C751.599 304.172 722.585 249.727 733.215 227.101C752.354 282.181 776.347 324.677 861.195 358.447C877.963 367.639 883.61 369.87 906.448 383.364C850.589 352.253 837.155 352.96 844.225 312.657C851.057 316.375 854.738 321.357 861.195 332.455C849.975 314.81 846.423 304.102 847.054 282.96C853.424 282.931 856.553 285.107 861.195 293.566C854.407 283.219 852.003 270.233 854.124 249.728C863.295 255.381 867.582 262.921 874.629 279.424C865.371 255.6 863.816 242.417 868.973 219.323C886.65 228.515 884.528 243.364 892.306 258.212C880.258 228.473 880.447 214.446 888.771 192.455C900.926 211.835 906.045 222.456 909.276 240.536C899.161 203.007 900.133 189.677 910.69 176.192C914.225 188.919 923.417 203.061 927.66 246.192C921.63 203.734 922.949 185.569 936.852 167C937.984 186.562 941.094 200.94 943.922 234.172C938.973 205.889 958.064 179.02 969.377 174.778C955.235 246.192 950.475 290.383 947.458 364.273" stroke="black" stroke-width="2"/>
<path d="M826.865 350.207C835.471 356.456 841.397 360.031 851.296 360.031" stroke="black" stroke-width="2"/>
<path d="M918.161 396.728C887.356 395.384 871.163 383.139 841.397 358.616" stroke="black" stroke-width="2"/>
<ellipse cx="996.246" cy="345.889" rx="2.82828" ry="3.53535" fill="black"/>
<defs>
<linearGradient id="paint0_linear_103_211" x1="286.634" y1="234" x2="1239.63" y2="1241" gradientUnits="userSpaceOnUse">
<stop stop-color="#EC9E30"/>
<stop offset="1" stop-color="#FFAB34"/>
</linearGradient>
<linearGradient id="paint1_linear_103_211" x1="340.634" y1="288" x2="1245.63" y2="1187" gradientUnits="userSpaceOnUse">
<stop stop-color="#0B2846"/>
<stop offset="1" stop-color="#0E335A"/>
</linearGradient>
<linearGradient id="paint2_linear_103_211" x1="198.394" y1="772.505" x2="522.152" y2="826.459" gradientUnits="userSpaceOnUse">
<stop stop-color="#EC9E30"/>
<stop offset="1" stop-color="#FFAB34"/>
</linearGradient>
<linearGradient id="paint3_linear_103_211" x1="1521.61" y1="773.005" x2="1197.85" y2="826.959" gradientUnits="userSpaceOnUse">
<stop stop-color="#EC9E30"/>
<stop offset="1" stop-color="#FFAB34"/>
</linearGradient>
<linearGradient id="paint4_linear_103_211" x1="497.134" y1="1475" x2="1096.63" y2="1669.5" gradientUnits="userSpaceOnUse">
<stop stop-color="#EC9E30"/>
<stop offset="1" stop-color="#FFAB34"/>
</linearGradient>
</defs>
</svg>
